<?xml version="1.0" encoding="UTF-8"?>
<!DOCTYPE svg PUBLIC "-//W3C//DTD SVG 1.1//EN" "http://www.w3.org/Graphics/SVG/1.1/DTD/svg11.dtd">
<!-- Creator: CorelDRAW 2021 (64-Bit) -->
<svg xmlns="http://www.w3.org/2000/svg" xml:space="preserve" width="9in" height="6in" version="1.1" style="shape-rendering:geometricPrecision; text-rendering:geometricPrecision; image-rendering:optimizeQuality; fill-rule:evenodd; clip-rule:evenodd" viewBox="0 0 9000 6000"
    xmlns:xlink="http://www.w3.org/1999/xlink"
    xmlns:xodm="http://www.corel.com/coreldraw/odm/2003">
    <defs>
        <style type="text/css">
            <![CDATA[
    .fil1 {fill:#0B04FF;fill-rule:nonzero}
    .fil0 {fill:#FFBE1E;fill-rule:nonzero}
   ]]>
        </style>
    </defs>
    <g id="Layer_x0020_1">
        <metadata id="CorelCorpID_0Corel-Layer"/>
        <g id="_2194770047760">
            <g>
                <path class="fil0" d="M5170.31 1583.44c103.11,0 196.47,41.8 264.04,109.37 67.57,67.57 109.37,160.93 109.37,264.04 0,103.11 -41.8,196.47 -109.37,264.04 -67.57,67.57 -160.93,109.37 -264.04,109.37 -103.11,0 -196.47,-41.8 -264.04,-109.37 -67.57,-67.57 -109.37,-160.93 -109.37,-264.04 0,-103.11 41.8,-196.47 109.37,-264.04 67.57,-67.57 160.93,-109.37 264.04,-109.37zm256.19 117.22c-65.56,-65.56 -156.15,-106.12 -256.19,-106.12 -100.05,0 -190.63,40.56 -256.19,106.12 -65.56,65.56 -106.12,156.15 -106.12,256.19 0,100.05 40.56,190.63 106.12,256.19 65.56,65.56 156.15,106.12 256.19,106.12 100.05,0 190.63,-40.56 256.19,-106.12 65.56,-65.56 106.12,-156.15 106.12,-256.19 0,-100.05 -40.56,-190.63 -106.12,-256.19z"/>
                <path class="fil0" d="M5170.31 1703.89c69.85,0 133.09,28.31 178.87,74.09 45.78,45.78 74.09,109.02 74.09,178.87 0,69.85 -28.31,133.09 -74.09,178.87 -45.78,45.78 -109.02,74.09 -178.87,74.09 -69.85,0 -133.09,-28.31 -178.87,-74.09 -45.78,-45.78 -74.09,-109.02 -74.09,-178.87 0,-69.85 28.31,-133.09 74.09,-178.87 45.78,-45.78 109.02,-74.09 178.87,-74.09zm171.02 81.94c-43.77,-43.76 -104.24,-70.84 -171.02,-70.84 -66.79,0 -127.26,27.07 -171.02,70.84 -43.76,43.77 -70.84,104.24 -70.84,171.02 0,66.78 27.07,127.26 70.84,171.02 43.77,43.76 104.24,70.84 171.02,70.84 66.78,0 127.26,-27.07 171.02,-70.84 43.76,-43.77 70.84,-104.24 70.84,-171.02 0,-66.79 -27.07,-127.26 -70.84,-171.02z"/>
                <path class="fil0" d="M5170.31 1259.72c192.51,0 366.8,78.04 492.95,204.19 126.15,126.15 204.19,300.44 204.19,492.95 0,186.44 -73.19,355.79 -192.4,480.87l-8.16 -7.52c117.38,-123.1 189.46,-289.81 189.46,-473.35 0,-189.44 -76.79,-360.96 -200.93,-485.1 -124.15,-124.14 -295.66,-200.93 -485.1,-200.93 -189.44,0 -360.96,76.79 -485.1,200.93 -9.31,9.31 -18.35,18.89 -27.12,28.73l-8.17 -7.52c8.87,-9.94 18.02,-19.64 27.43,-29.06 126.15,-126.15 300.44,-204.19 492.95,-204.19z"/>
            </g>
            <g>
                <path class="fil1" d="M4617.36 3587.85c9.89,-22 20.85,-43.55 32.82,-64.55 11.96,-20.98 24.93,-41.39 38.84,-61.13l-124.19 -154.49c-8.92,-11.09 -13.29,-24.68 -12.8,-38.02 0.48,-13.05 5.6,-25.87 15.64,-35.91l67.85 -67.87c10.04,-10.04 22.87,-15.16 35.94,-15.64 13.34,-0.49 26.92,3.88 38.01,12.8l153.37 123.28c19.86,-14.32 40.35,-27.6 61.37,-39.8 21.06,-12.22 42.78,-23.44 65.04,-33.57l-30.03 -194.1c-2.17,-14.07 0.82,-28.04 7.92,-39.33 6.94,-11.06 17.79,-19.59 31.52,-23.28l92.67 -24.83c13.73,-3.67 27.39,-1.71 38.93,4.4 11.8,6.24 21.38,16.83 26.53,30.11l71.04 183.1c24.29,-2.34 48.69,-3.49 73.11,-3.43 24.42,0.06 48.81,1.32 73.05,3.78l71.18 -183.44c5.15,-13.28 14.74,-23.87 26.53,-30.11 11.54,-6.11 25.2,-8.07 38.93,-4.4l92.67 24.83c13.72,3.67 24.57,12.22 31.52,23.28 7.09,11.3 10.1,25.26 7.93,39.33l-30.3 195.89c22.03,10.19 43.48,21.38 64.23,33.51 20.72,12.11 40.97,25.3 60.67,39.51l155.15 -124.72c11.09,-8.92 24.68,-13.29 38.01,-12.8 13.05,0.48 25.87,5.6 35.91,15.64l67.87 67.85c10.04,10.04 15.16,22.87 15.64,35.94 0.49,13.34 -3.88,26.92 -12.8,38.01l-125.38 155.97c13.81,19.53 26.69,39.72 38.58,60.48 11.87,20.72 22.78,42.08 32.69,63.97l198.29 -30.67c14.08,-2.17 28.04,0.82 39.34,7.91 11.06,6.94 19.59,17.79 23.28,31.52l24.83 92.67c3.67,13.73 1.71,27.39 -4.4,38.93 -6.24,11.8 -16.83,21.38 -30.11,26.53l-187.06 72.58c2.35,23.81 3.58,47.77 3.66,71.75 0.08,23.91 -0.98,47.82 -3.17,71.65l186.57 72.39c13.28,5.15 23.87,14.73 30.11,26.53 6.1,11.54 8.07,25.19 4.4,38.93l-24.83 92.67c-3.68,13.73 -12.22,24.57 -23.28,31.52 -11.31,7.09 -25.26,10.1 -39.33,7.93l-196.71 -30.43c-9.89,21.99 -20.84,43.54 -32.81,64.54 -11.96,20.99 -24.93,41.4 -38.85,61.14l124.19 154.49c8.92,11.09 13.29,24.68 12.8,38.02 -0.48,13.05 -5.6,25.87 -15.64,35.91l-67.85 67.87c-10.04,10.04 -22.87,15.16 -35.94,15.64 -13.34,0.49 -26.92,-3.88 -38.01,-12.8l-153.39 -123.3c-19.86,14.31 -40.34,27.6 -61.35,39.79 -21.06,12.22 -42.78,23.43 -65.03,33.57l30.03 194.12c2.17,14.08 -0.82,28.04 -7.91,39.34 -6.94,11.06 -17.79,19.59 -31.52,23.28l-92.67 24.83c-13.73,3.67 -27.39,1.71 -38.93,-4.4 -11.8,-6.24 -21.38,-16.83 -26.53,-30.11l-71.05 -183.12c-24.28,2.35 -48.67,3.49 -73.09,3.44 -24.43,-0.05 -48.82,-1.31 -73.06,-3.76l-71.18 183.44c-5.15,13.28 -14.73,23.87 -26.53,30.11 -11.54,6.11 -25.2,8.07 -38.93,4.4l-92.67 -24.83c-13.73,-3.68 -24.57,-12.22 -31.52,-23.28 -7.09,-11.31 -10.1,-25.26 -7.93,-39.33l30.3 -195.9c-22.04,-10.19 -43.48,-21.38 -64.24,-33.51l-0.41 -0.26c-20.67,-12.1 -40.78,-25.2 -60.24,-39.23l-155.15 124.72c-11.09,8.92 -24.68,13.29 -38.02,12.8 -13.05,-0.48 -25.87,-5.6 -35.91,-15.64l-67.87 -67.85c-10.04,-10.04 -15.16,-22.87 -15.64,-35.94 -0.49,-13.34 3.88,-26.92 12.8,-38.01l125.37 -155.97c-13.81,-19.53 -26.69,-39.72 -38.58,-60.47 -11.87,-20.72 -22.78,-42.08 -32.69,-63.98l-198.29 30.67c-14.08,2.17 -28.04,-0.82 -39.34,-7.91 -11.06,-6.94 -19.59,-17.79 -23.28,-31.52l-24.83 -92.67c-3.67,-13.73 -1.71,-27.39 4.4,-38.93 6.24,-11.8 16.83,-21.38 30.11,-26.53l187.06 -72.58c-2.35,-23.82 -3.58,-47.77 -3.66,-71.76 -0.08,-23.91 0.98,-47.82 3.17,-71.65l-186.57 -72.39c-13.28,-5.15 -23.87,-14.73 -30.11,-26.53 -6.1,-11.54 -8.07,-25.19 -4.4,-38.93l24.83 -92.67c3.68,-13.73 12.22,-24.57 23.28,-31.52 11.31,-7.09 25.26,-10.1 39.33,-7.93l196.71 30.43zm42.44 -59.08c-12.44,21.83 -23.81,44.35 -34.03,67.43 -0.99,2.23 -3.39,3.62 -5.92,3.23l-200.9 -31.08c-11.38,-1.76 -22.64,0.66 -31.74,6.37 -8.77,5.51 -15.55,14.11 -18.46,25.01l-24.83 92.67c-2.92,10.91 -1.35,21.76 3.49,30.91 5.02,9.49 13.57,17.21 24.31,21.37l190.44 73.89c2.27,0.86 3.78,3.16 3.54,5.69 -2.43,24.86 -3.61,49.83 -3.52,74.77 0.08,24.93 1.43,49.91 4.04,74.82 0.25,2.42 -1.13,4.8 -3.51,5.72l-191 74.11c-10.73,4.17 -19.28,11.89 -24.3,21.37 -4.85,9.16 -6.41,20.01 -3.49,30.91l24.83 92.67c2.92,10.91 9.69,19.52 18.46,25.02 9.09,5.7 20.36,8.11 31.75,6.35l202.19 -31.28c2.49,-0.51 5.09,0.75 6.16,3.17 10.16,22.78 21.49,45.09 33.94,66.83 12.39,21.62 25.87,42.63 40.41,62.94 1.41,1.97 1.4,4.72 -0.19,6.7l-128 159.24c-7.22,8.98 -10.76,19.94 -10.37,30.68 0.38,10.33 4.45,20.5 12.44,28.48l67.85 67.85c7.98,7.99 18.14,12.06 28.48,12.44 10.73,0.39 21.7,-3.15 30.69,-10.37l158.44 -127.36c1.91,-1.52 4.66,-1.65 6.72,-0.15 20.19,14.74 41.15,28.47 62.76,41.12l0.41 0.22c21.85,12.77 44.24,24.39 67.05,34.78 2.19,1 3.55,3.37 3.16,5.87l-30.94 200.03c-1.76,11.38 0.66,22.64 6.37,31.74 5.51,8.77 14.11,15.55 25.01,18.46l92.67 24.83c10.9,2.92 21.75,1.36 30.91,-3.49 9.49,-5.02 17.21,-13.57 21.37,-24.31l72.62 -187.15c0.81,-2.41 3.2,-4.02 5.83,-3.74 25.34,2.71 50.76,4.1 76.1,4.15 25.38,0.06 50.81,-1.21 76.16,-3.81 2.42,-0.25 4.8,1.13 5.72,3.51l72.57 187.05c4.17,10.73 11.89,19.28 21.37,24.3 9.16,4.85 20.01,6.41 30.91,3.49l92.67 -24.83c10.91,-2.92 19.52,-9.69 25.02,-18.46 5.7,-9.09 8.11,-20.36 6.35,-31.75l-30.63 -198.01c-0.51,-2.49 0.75,-5.09 3.17,-6.16 23.18,-10.39 45.83,-22.02 67.84,-34.79 21.93,-12.72 43.15,-26.55 63.53,-41.4 1.98,-1.67 4.93,-1.76 7.03,-0.08l156.67 125.94c8.98,7.22 19.94,10.76 30.68,10.37 10.33,-0.38 20.5,-4.45 28.48,-12.44l67.85 -67.85c7.99,-7.98 12.06,-18.14 12.44,-28.48 0.39,-10.73 -3.15,-21.7 -10.37,-30.69l-126.8 -157.74c-1.51,-1.88 -1.66,-4.61 -0.19,-6.68 14.63,-20.51 28.21,-41.75 40.67,-63.61 12.44,-21.83 23.81,-44.34 34.02,-67.42 0.99,-2.23 3.39,-3.62 5.92,-3.23l200.9 31.08c11.38,1.76 22.64,-0.66 31.74,-6.37 8.77,-5.51 15.55,-14.12 18.46,-25.01l24.83 -92.67c2.92,-10.91 1.35,-21.76 -3.49,-30.91 -5.02,-9.49 -13.57,-17.21 -24.31,-21.37l-190.44 -73.89c-2.27,-0.86 -3.78,-3.16 -3.54,-5.69 2.43,-24.87 3.61,-49.83 3.52,-74.77 -0.08,-24.93 -1.43,-49.91 -4.04,-74.82 -0.25,-2.42 1.13,-4.8 3.51,-5.72l191 -74.11c10.73,-4.17 19.28,-11.89 24.3,-21.37 4.85,-9.16 6.41,-20.01 3.49,-30.91l-24.83 -92.67c-2.92,-10.91 -9.69,-19.52 -18.46,-25.02 -9.09,-5.7 -20.36,-8.11 -31.75,-6.35l-202.19 31.28c-2.49,0.51 -5.09,-0.75 -6.16,-3.17 -10.15,-22.78 -21.48,-45.09 -33.94,-66.83 -12.39,-21.62 -25.87,-42.64 -40.41,-62.95 -1.41,-1.97 -1.4,-4.72 0.19,-6.7l128.01 -159.24c7.22,-8.98 10.76,-19.94 10.37,-30.68 -0.38,-10.33 -4.45,-20.5 -12.44,-28.48l-67.85 -67.85c-7.98,-7.99 -18.14,-12.06 -28.48,-12.44 -10.73,-0.39 -21.69,3.15 -30.68,10.37l-158.44 127.36c-1.91,1.52 -4.66,1.65 -6.72,0.15 -20.22,-14.76 -41.32,-28.57 -63.19,-41.35 -21.84,-12.77 -44.22,-24.39 -67.04,-34.78 -2.19,-1 -3.55,-3.37 -3.16,-5.87l30.94 -200.02c1.76,-11.38 -0.66,-22.64 -6.37,-31.74 -5.51,-8.78 -14.11,-15.55 -25.01,-18.47l-92.67 -24.83c-10.91,-2.92 -21.75,-1.36 -30.91,3.49 -9.49,5.02 -17.21,13.57 -21.37,24.31l-72.62 187.15c-0.81,2.41 -3.2,4.02 -5.83,3.74 -25.34,-2.72 -50.75,-4.11 -76.09,-4.17 -25.39,-0.06 -50.83,1.21 -76.18,3.8 -2.42,0.25 -4.8,-1.13 -5.72,-3.51l-72.57 -187.02c-4.16,-10.74 -11.88,-19.28 -21.37,-24.3 -9.16,-4.85 -20.01,-6.41 -30.91,-3.49l-92.67 24.83c-10.91,2.92 -19.51,9.7 -25.02,18.46 -5.71,9.09 -8.12,20.36 -6.36,31.74l30.63 197.99c0.51,2.49 -0.75,5.09 -3.17,6.16 -23.19,10.39 -45.83,22.02 -67.84,34.79 -21.94,12.73 -43.15,26.56 -63.54,41.41 -1.98,1.67 -4.93,1.76 -7.03,0.08l-156.66 -125.93c-8.98,-7.22 -19.94,-10.76 -30.68,-10.37 -10.33,0.38 -20.5,4.45 -28.48,12.44l-67.85 67.85c-7.99,7.98 -12.06,18.14 -12.44,28.48 -0.39,10.73 3.15,21.7 10.37,30.69l126.8 157.74c1.51,1.88 1.66,4.61 0.19,6.68 -14.63,20.51 -28.2,41.74 -40.66,63.6z"/>
                <path class="fil1" d="M4366.04 3698.34l24.83 -92.68c1.44,-5.37 4.83,-9.43 9.21,-11.96 4.45,-2.57 9.93,-3.54 15.34,-2.71l222.81 34.48c11.93,-29.3 25.77,-57.78 41.41,-85.22 15.64,-27.45 33.09,-53.88 52.21,-79.07l-140.52 -174.81c-3.46,-4.31 -5.37,-9.53 -5.37,-14.65 0.02,-5.08 1.83,-10.04 5.76,-13.97l67.84 -67.84c3.94,-3.94 8.9,-5.75 13.96,-5.75 5.13,0.02 10.37,1.92 14.65,5.36l173.91 139.8c24.95,-19.4 51.37,-37.26 79.13,-53.38 27.31,-15.86 55.91,-30.01 85.64,-42.27l-34.04 -220.03c-0.84,-5.45 0.11,-10.93 2.67,-15.36 2.53,-4.39 6.59,-7.77 11.96,-9.21l92.68 -24.83c5.37,-1.44 10.57,-0.52 14.96,2.01l0.35 0.22c4.28,2.59 7.7,6.76 9.64,11.73l80.54 207.57c31.87,-4.25 63.71,-6.28 95.3,-6.21 32.13,0.08 63.94,2.34 95.22,6.67l80.72 -208.02c1.99,-5.13 5.56,-9.38 10,-11.95 4.39,-2.55 9.59,-3.46 14.96,-2.02l92.68 24.83c5.38,1.44 9.43,4.83 11.96,9.21l0.2 0.39c2.41,4.39 3.31,9.7 2.5,14.95l-34.31 221.69c29.15,12.25 57.48,26.42 84.78,42.38 27.31,15.97 53.53,33.7 78.46,53.07l175.7 -141.23c4.3,-3.46 9.53,-5.37 14.64,-5.37 5.08,0.02 10.04,1.83 13.97,5.76l67.84 67.84c3.94,3.94 5.75,8.9 5.75,13.96 -0.02,5.13 -1.92,10.37 -5.36,14.65l-141.76 176.35c18.91,24.8 36.3,50.95 51.98,78.33 15.45,26.98 29.3,55.24 41.37,84.66l224.28 -34.7c5.44,-0.84 10.91,0.12 15.34,2.67 4.41,2.53 7.79,6.59 9.23,11.96l24.83 92.68c1.44,5.36 0.52,10.55 -2.01,14.94 -2.57,4.45 -6.83,8.03 -11.96,10.02l-211.57 82.09c4.24,31.43 6.37,62.83 6.48,94 0.11,31.62 -1.87,62.97 -5.84,93.84l210.93 81.84c5.15,2 9.41,5.56 11.96,9.99 2.54,4.39 3.44,9.6 2.01,14.97l-24.83 92.68c-1.44,5.38 -4.83,9.43 -9.21,11.96 -4.45,2.57 -9.93,3.54 -15.34,2.71l-222.8 -34.49c-11.93,29.31 -25.78,57.78 -41.41,85.22 -15.64,27.45 -33.09,53.88 -52.22,79.07l140.52 174.81c3.46,4.31 5.37,9.53 5.37,14.65 -0.02,5.08 -1.83,10.04 -5.76,13.97l-67.84 67.84c-3.94,3.94 -8.9,5.75 -13.96,5.75 -5.13,-0.02 -10.37,-1.92 -14.65,-5.36l-173.93 -139.81c-24.95,19.4 -51.37,37.26 -79.13,53.37 -27.31,15.86 -55.89,30 -85.63,42.27l34.04 220.04c0.84,5.44 -0.12,10.91 -2.67,15.34 -2.53,4.41 -6.59,7.79 -11.96,9.23l-92.68 24.83c-5.36,1.44 -10.55,0.52 -14.94,-2.01 -4.45,-2.57 -8.03,-6.83 -10.02,-11.96l-80.55 -207.59c-31.87,4.25 -63.7,6.29 -95.28,6.21 -32.13,-0.07 -63.94,-2.33 -95.22,-6.66l-80.72 208.03c-2,5.15 -5.56,9.41 -9.99,11.96 -4.39,2.54 -9.6,3.44 -14.97,2.01l-92.68 -24.83c-5.37,-1.44 -9.43,-4.83 -11.96,-9.21 -2.57,-4.45 -3.54,-9.93 -2.71,-15.34l34.31 -221.69c-29.15,-12.25 -57.48,-26.41 -84.78,-42.38 -27.31,-15.97 -53.53,-33.7 -78.46,-53.07l-175.69 141.23c-4.31,3.46 -9.53,5.37 -14.65,5.37 -5.08,-0.02 -10.04,-1.83 -13.97,-5.76l-67.84 -67.84c-3.94,-3.94 -5.75,-8.9 -5.75,-13.96 0.02,-5.13 1.92,-10.37 5.36,-14.65l141.76 -176.35c-18.91,-24.8 -36.3,-50.96 -51.98,-78.33 -15.45,-26.98 -29.3,-55.24 -41.37,-84.67l-224.28 34.7c-5.44,0.84 -10.91,-0.12 -15.34,-2.67 -4.41,-2.53 -7.79,-6.59 -9.23,-11.96l-24.83 -92.68c-1.44,-5.36 -0.52,-10.55 2.01,-14.94 2.57,-4.45 6.83,-8.03 11.96,-10.02l211.57 -82.09c-4.24,-31.43 -6.37,-62.82 -6.48,-94 -0.11,-31.62 1.87,-62.97 5.84,-93.84l-210.93 -81.84c-5.15,-2 -9.41,-5.56 -11.96,-9.99 -2.54,-4.39 -3.44,-9.6 -2.01,-14.97zm35.54 -89.82l-24.83 92.68c-0.63,2.35 -0.23,4.63 0.88,6.56 1.31,2.28 3.59,4.15 6.37,5.22l214.79 83.34c2.44,0.84 4.04,3.31 3.68,5.97 -4.29,31.83 -6.43,64.13 -6.32,96.69 0.11,32 2.41,64.33 6.99,96.81 0.34,2.48 -1.05,4.97 -3.49,5.92l-215.66 83.68c-2.78,1.08 -5.06,2.94 -6.37,5.21 -1.11,1.93 -1.51,4.22 -0.88,6.57l24.83 92.68c0.63,2.34 2.12,4.13 4.05,5.24 2.27,1.31 5.17,1.79 8.12,1.33l228.3 -35.32c2.59,-0.55 5.28,0.82 6.3,3.35 12.23,30.34 26.43,59.5 42.37,87.35 16.17,28.23 34.12,55.06 53.63,80.36 1.67,1.98 1.76,4.93 0.07,7.03l-144.48 179.73c-1.87,2.33 -2.91,5.09 -2.91,7.71 0.02,2.23 0.81,4.41 2.52,6.11l67.84 67.84c1.73,1.73 3.91,2.53 6.12,2.53 2.63,-0.02 5.39,-1.06 7.71,-2.92l178.89 -143.8c1.97,-1.76 4.98,-1.91 7.12,-0.22 25.69,20.22 52.66,38.58 80.67,54.96 28.08,16.43 57.3,30.93 87.41,43.36 2.31,0.95 3.76,3.39 3.36,5.96l-34.93 225.93c-0.46,2.98 0.02,5.88 1.32,8.14 1.11,1.93 2.89,3.43 5.23,4.05l92.68 24.83c2.35,0.63 4.63,0.23 6.56,-0.88 2.28,-1.31 4.15,-3.59 5.22,-6.37l82.19 -211.83c0.81,-2.52 3.34,-4.18 6.06,-3.79 32.29,4.67 65.04,7.11 98,7.19 32.44,0.07 65.21,-2.13 98.1,-6.72 2.48,-0.34 4.97,1.05 5.92,3.49l82.13 211.67c1.08,2.78 2.94,5.06 5.21,6.37 1.93,1.11 4.22,1.51 6.57,0.88l92.68 -24.83c2.34,-0.63 4.13,-2.12 5.24,-4.05 1.31,-2.27 1.79,-5.17 1.33,-8.12l-34.64 -223.93c-0.63,-2.62 0.73,-5.39 3.31,-6.43 30.76,-12.46 60.23,-26.94 88.29,-43.23 28.54,-16.56 55.69,-35.05 81.3,-55.22 1.98,-1.55 4.85,-1.6 6.89,0.04l177.35 142.57c2.33,1.87 5.09,2.91 7.71,2.91 2.23,-0.02 4.41,-0.81 6.11,-2.52l67.84 -67.84c1.73,-1.73 2.53,-3.91 2.53,-6.12 -0.02,-2.63 -1.06,-5.39 -2.92,-7.71l-143.24 -178.19c-1.56,-1.95 -1.66,-4.79 -0.06,-6.85 19.85,-25.81 37.9,-52.97 54.01,-81.24 16.1,-28.26 30.28,-57.65 42.39,-87.94 0.94,-2.33 3.39,-3.8 5.98,-3.4l227.1 35.11c2.98,0.46 5.88,-0.02 8.14,-1.32 1.93,-1.11 3.43,-2.89 4.05,-5.23l24.83 -92.68c0.63,-2.35 0.23,-4.63 -0.88,-6.56 -1.31,-2.28 -3.59,-4.15 -6.37,-5.22l-214.79 -83.34c-2.44,-0.84 -4.04,-3.31 -3.68,-5.97 4.29,-31.83 6.43,-64.13 6.32,-96.69 -0.11,-31.99 -2.41,-64.33 -6.99,-96.81 -0.34,-2.48 1.05,-4.97 3.49,-5.92l215.66 -83.68c2.78,-1.08 5.06,-2.95 6.37,-5.21 1.11,-1.93 1.51,-4.22 0.88,-6.57l-24.83 -92.68c-0.63,-2.35 -2.12,-4.13 -4.05,-5.24 -2.27,-1.31 -5.17,-1.79 -8.12,-1.33l-228.3 35.32c-2.59,0.55 -5.28,-0.82 -6.3,-3.35 -12.23,-30.33 -26.43,-59.5 -42.37,-87.35 -16.17,-28.24 -34.12,-55.07 -53.64,-80.36 -1.67,-1.98 -1.76,-4.93 -0.07,-7.03l144.48 -179.73c1.87,-2.33 2.91,-5.09 2.91,-7.71 -0.02,-2.23 -0.81,-4.41 -2.52,-6.11l-67.84 -67.84c-1.73,-1.73 -3.91,-2.53 -6.12,-2.53 -2.63,0.02 -5.39,1.06 -7.7,2.92l-178.89 143.8c-1.97,1.76 -4.98,1.91 -7.12,0.22 -25.69,-20.22 -52.66,-38.58 -80.67,-54.96 -28.08,-16.43 -57.3,-30.93 -87.41,-43.37 -2.31,-0.95 -3.76,-3.39 -3.36,-5.96l34.93 -225.92c0.44,-2.87 0.02,-5.68 -1.18,-7.91l-0.15 -0.24c-1.12,-1.93 -2.89,-3.43 -5.23,-4.05l-92.68 -24.83c-2.35,-0.63 -4.63,-0.23 -6.56,0.88 -2.28,1.3 -4.14,3.57 -5.22,6.37l-82.19 211.82c-0.81,2.52 -3.34,4.18 -6.06,3.79 -32.3,-4.67 -65.05,-7.12 -98.01,-7.2 -32.44,-0.07 -65.22,2.12 -98.11,6.71 -2.48,0.34 -4.97,-1.05 -5.92,-3.49l-82.12 -211.65c-1.04,-2.69 -2.81,-4.89 -4.96,-6.22l-0.27 -0.15c-1.93,-1.11 -4.21,-1.52 -6.56,-0.89l-92.68 24.83c-2.34,0.63 -4.13,2.12 -5.24,4.05 -1.31,2.27 -1.79,5.17 -1.33,8.12l34.64 223.91c0.63,2.62 -0.73,5.39 -3.31,6.43 -30.77,12.46 -60.25,26.94 -88.3,43.23 -28.54,16.57 -55.69,35.05 -81.3,55.22 -1.98,1.55 -4.85,1.6 -6.89,-0.04l-177.34 -142.56c-2.33,-1.87 -5.09,-2.91 -7.71,-2.91 -2.23,0.02 -4.41,0.81 -6.11,2.52l-67.84 67.84c-1.73,1.73 -2.53,3.91 -2.53,6.12 0.02,2.63 1.06,5.39 2.92,7.71l143.24 178.19c1.56,1.95 1.66,4.79 0.06,6.85 -19.84,25.81 -37.89,52.96 -54,81.24 -16.1,28.26 -30.28,57.65 -42.4,87.95 -0.94,2.33 -3.39,3.8 -5.98,3.4l-227.1 -35.11c-2.98,-0.46 -5.88,0.02 -8.14,1.32 -1.93,1.11 -3.43,2.89 -4.05,5.23z"/>
                <path class="fil1" d="M5145.54 3319.06c160.17,-42.92 322.6,-16.84 455.71,60.01 133.12,76.85 236.93,204.5 279.85,364.68 42.92,160.17 16.84,322.6 -60.01,455.71 -76.85,133.12 -204.5,236.93 -364.68,279.85 -160.17,42.92 -322.6,16.84 -455.71,-60.01 -133.12,-76.85 -236.93,-204.5 -279.85,-364.68 -42.92,-160.17 -16.84,-322.6 60.01,-455.71 76.85,-133.12 204.5,-236.93 364.68,-279.85zm450.21 69.59c-130.65,-75.43 -290.09,-101.02 -447.35,-58.88 -157.25,42.13 -282.53,144.01 -357.95,274.64 -75.43,130.65 -101.02,290.09 -58.88,447.35 42.13,157.25 144.01,282.53 274.64,357.95 130.65,75.43 290.09,101.02 447.35,58.88 157.25,-42.13 282.53,-144.01 357.95,-274.64 75.43,-130.65 101.02,-290.09 58.88,-447.35 -42.13,-157.25 -144.01,-282.53 -274.64,-357.95z"/>
                <path class="fil1" d="M5136.74 3286.24c168.24,-45.08 338.96,-17.29 478.93,64.09 139.98,81.37 249.24,216.35 294.59,385.59 45.35,169.24 18.22,340.75 -62.31,481.2 -80.54,140.47 -214.49,249.91 -382.74,294.99 -168.24,45.08 -338.96,17.29 -478.93,-64.09 -139.98,-81.37 -249.24,-216.35 -294.59,-385.59 -45.35,-169.24 -18.22,-340.75 62.31,-481.2 80.54,-140.47 214.49,-249.91 382.74,-294.99zm473.38 73.68c-137.52,-79.95 -305.23,-107.26 -470.52,-62.97 -165.28,44.28 -296.86,151.79 -375.98,289.78 -79.12,138.01 -105.78,306.54 -61.22,472.84 44.56,166.3 151.91,298.92 289.43,378.87 137.52,79.95 305.23,107.26 470.52,62.97 165.28,-44.28 296.86,-151.79 375.98,-289.78 79.12,-138.01 105.78,-306.54 61.22,-472.84 -44.56,-166.3 -151.91,-298.92 -289.43,-378.87z"/>
                <path class="fil1" d="M6205.83 2317.07c9.89,-22 20.85,-43.55 32.82,-64.55 11.96,-20.98 24.93,-41.39 38.84,-61.13l-124.19 -154.49c-8.92,-11.09 -13.29,-24.68 -12.8,-38.02 0.48,-13.05 5.6,-25.87 15.64,-35.91l67.85 -67.87c10.04,-10.04 22.87,-15.16 35.94,-15.64 13.34,-0.49 26.92,3.88 38.01,12.8l153.37 123.28c19.86,-14.32 40.35,-27.6 61.37,-39.8 21.06,-12.22 42.78,-23.44 65.04,-33.57l-30.03 -194.1c-2.17,-14.07 0.82,-28.04 7.92,-39.33 6.94,-11.06 17.79,-19.59 31.52,-23.28l92.67 -24.83c13.73,-3.67 27.39,-1.71 38.93,4.4 11.8,6.24 21.38,16.83 26.53,30.11l71.04 183.1c24.29,-2.34 48.69,-3.49 73.11,-3.43 24.42,0.06 48.81,1.32 73.05,3.78l71.18 -183.44c5.15,-13.28 14.74,-23.87 26.53,-30.11 11.54,-6.11 25.2,-8.07 38.93,-4.4l92.67 24.83c13.72,3.67 24.57,12.22 31.52,23.28 7.09,11.3 10.1,25.26 7.93,39.33l-30.3 195.89c22.03,10.19 43.48,21.38 64.23,33.51 20.72,12.11 40.97,25.3 60.67,39.51l155.15 -124.72c11.09,-8.92 24.68,-13.29 38.01,-12.8 13.05,0.48 25.87,5.6 35.91,15.64l67.87 67.85c10.04,10.04 15.16,22.87 15.64,35.94 0.49,13.34 -3.88,26.92 -12.8,38.01l-125.38 155.97c13.81,19.53 26.69,39.72 38.58,60.48 11.87,20.72 22.78,42.08 32.69,63.97l198.29 -30.67c14.08,-2.17 28.04,0.82 39.34,7.91 11.06,6.94 19.59,17.79 23.28,31.52l24.83 92.67c3.67,13.73 1.71,27.39 -4.4,38.93 -6.24,11.8 -16.83,21.38 -30.11,26.53l-187.06 72.58c2.35,23.81 3.58,47.77 3.66,71.75 0.08,23.91 -0.98,47.82 -3.17,71.65l186.57 72.39c13.28,5.15 23.87,14.73 30.11,26.53 6.1,11.54 8.07,25.19 4.4,38.93l-24.83 92.67c-3.68,13.73 -12.22,24.57 -23.28,31.52 -11.31,7.09 -25.26,10.1 -39.33,7.93l-196.71 -30.43c-9.89,21.99 -20.84,43.54 -32.81,64.54 -11.96,20.99 -24.93,41.4 -38.85,61.14l124.19 154.49c8.92,11.09 13.29,24.68 12.8,38.02 -0.48,13.05 -5.6,25.87 -15.64,35.91l-67.85 67.87c-10.04,10.04 -22.87,15.16 -35.94,15.64 -13.34,0.49 -26.92,-3.88 -38.01,-12.8l-153.39 -123.3c-19.86,14.31 -40.34,27.6 -61.35,39.79 -21.06,12.22 -42.78,23.43 -65.03,33.57l30.03 194.12c2.17,14.08 -0.82,28.04 -7.91,39.34 -6.94,11.06 -17.79,19.59 -31.52,23.28l-92.67 24.83c-13.73,3.67 -27.39,1.71 -38.93,-4.4 -11.8,-6.24 -21.38,-16.83 -26.53,-30.11l-71.05 -183.12c-24.28,2.35 -48.67,3.49 -73.09,3.44 -24.43,-0.05 -48.82,-1.31 -73.06,-3.76l-71.18 183.44c-5.15,13.28 -14.73,23.87 -26.53,30.11 -11.54,6.11 -25.2,8.07 -38.93,4.4l-92.67 -24.83c-13.73,-3.68 -24.57,-12.22 -31.52,-23.28 -7.09,-11.31 -10.1,-25.26 -7.93,-39.33l30.3 -195.9c-22.04,-10.19 -43.48,-21.38 -64.24,-33.51l-0.41 -0.26c-20.67,-12.1 -40.78,-25.2 -60.24,-39.23l-155.15 124.72c-11.09,8.92 -24.68,13.29 -38.02,12.8 -13.05,-0.48 -25.87,-5.6 -35.91,-15.64l-67.87 -67.85c-10.04,-10.04 -15.16,-22.87 -15.64,-35.94 -0.49,-13.34 3.88,-26.92 12.8,-38.01l125.37 -155.97c-13.81,-19.53 -26.69,-39.72 -38.58,-60.47 -11.87,-20.72 -22.78,-42.08 -32.69,-63.98l-198.29 30.67c-14.08,2.17 -28.04,-0.82 -39.34,-7.91 -11.06,-6.94 -19.59,-17.79 -23.28,-31.52l-24.83 -92.67c-3.67,-13.73 -1.71,-27.39 4.4,-38.93 6.24,-11.8 16.83,-21.38 30.11,-26.53l187.06 -72.58c-2.35,-23.82 -3.58,-47.77 -3.66,-71.76 -0.08,-23.91 0.98,-47.82 3.17,-71.65l-186.57 -72.39c-13.28,-5.15 -23.87,-14.73 -30.11,-26.53 -6.1,-11.54 -8.07,-25.2 -4.4,-38.93l24.83 -92.67c3.68,-13.73 12.22,-24.57 23.28,-31.52 11.31,-7.09 25.26,-10.1 39.33,-7.93l196.71 30.43zm42.44 -59.08c-12.44,21.83 -23.81,44.35 -34.03,67.43 -0.99,2.23 -3.39,3.62 -5.92,3.23l-200.9 -31.08c-11.38,-1.76 -22.65,0.66 -31.74,6.37 -8.77,5.51 -15.55,14.12 -18.46,25.01l-24.83 92.67c-2.92,10.91 -1.35,21.76 3.49,30.91 5.02,9.49 13.57,17.21 24.31,21.37l190.44 73.89c2.27,0.86 3.78,3.16 3.54,5.69 -2.43,24.86 -3.61,49.83 -3.52,74.77 0.08,24.93 1.43,49.91 4.04,74.82 0.25,2.42 -1.13,4.8 -3.51,5.72l-191 74.11c-10.74,4.17 -19.28,11.89 -24.3,21.37 -4.85,9.16 -6.41,20.01 -3.49,30.91l24.83 92.67c2.92,10.91 9.69,19.52 18.46,25.02 9.09,5.7 20.36,8.11 31.75,6.35l202.19 -31.28c2.49,-0.51 5.09,0.75 6.16,3.17 10.16,22.78 21.49,45.09 33.94,66.83 12.39,21.62 25.87,42.63 40.41,62.94 1.41,1.97 1.4,4.72 -0.19,6.7l-128 159.24c-7.22,8.98 -10.76,19.94 -10.37,30.68 0.38,10.33 4.45,20.5 12.44,28.48l67.85 67.85c7.98,7.99 18.14,12.06 28.48,12.44 10.73,0.39 21.7,-3.15 30.69,-10.37l158.44 -127.36c1.91,-1.52 4.66,-1.65 6.72,-0.15 20.19,14.74 41.15,28.47 62.76,41.12l0.41 0.22c21.85,12.77 44.24,24.39 67.05,34.78 2.19,1 3.55,3.37 3.16,5.87l-30.94 200.03c-1.76,11.38 0.66,22.64 6.37,31.74 5.51,8.77 14.11,15.55 25.01,18.46l92.67 24.83c10.9,2.92 21.75,1.36 30.91,-3.49 9.49,-5.02 17.21,-13.57 21.37,-24.31l72.62 -187.15c0.81,-2.41 3.2,-4.02 5.83,-3.74 25.34,2.71 50.76,4.1 76.1,4.15 25.38,0.06 50.81,-1.21 76.16,-3.81 2.42,-0.25 4.8,1.13 5.72,3.51l72.57 187.05c4.17,10.73 11.89,19.28 21.37,24.3 9.16,4.85 20.01,6.41 30.91,3.49l92.67 -24.83c10.91,-2.92 19.52,-9.69 25.02,-18.46 5.7,-9.09 8.11,-20.36 6.35,-31.75l-30.63 -198.01c-0.51,-2.49 0.75,-5.09 3.17,-6.16 23.18,-10.39 45.83,-22.02 67.84,-34.79 21.93,-12.72 43.15,-26.55 63.53,-41.4 1.98,-1.67 4.93,-1.76 7.03,-0.08l156.67 125.94c8.98,7.22 19.94,10.76 30.68,10.37 10.33,-0.38 20.5,-4.45 28.48,-12.44l67.85 -67.85c7.99,-7.98 12.06,-18.14 12.44,-28.48 0.39,-10.73 -3.15,-21.7 -10.37,-30.69l-126.8 -157.74c-1.51,-1.88 -1.66,-4.61 -0.19,-6.68 14.63,-20.51 28.21,-41.75 40.67,-63.61 12.44,-21.83 23.81,-44.34 34.02,-67.42 0.99,-2.23 3.39,-3.62 5.92,-3.23l200.9 31.08c11.38,1.76 22.64,-0.66 31.74,-6.37 8.77,-5.51 15.55,-14.11 18.46,-25.01l24.83 -92.67c2.92,-10.91 1.35,-21.76 -3.49,-30.91 -5.02,-9.49 -13.57,-17.21 -24.31,-21.37l-190.44 -73.89c-2.27,-0.86 -3.78,-3.16 -3.54,-5.69 2.43,-24.87 3.61,-49.83 3.52,-74.77 -0.08,-24.93 -1.43,-49.91 -4.04,-74.82 -0.25,-2.42 1.13,-4.8 3.51,-5.72l191 -74.11c10.73,-4.17 19.28,-11.89 24.3,-21.37 4.85,-9.16 6.41,-20.01 3.49,-30.91l-24.83 -92.67c-2.92,-10.91 -9.69,-19.52 -18.46,-25.02 -9.09,-5.7 -20.36,-8.11 -31.75,-6.35l-202.19 31.28c-2.49,0.51 -5.09,-0.75 -6.16,-3.17 -10.15,-22.78 -21.48,-45.09 -33.94,-66.83 -12.39,-21.62 -25.87,-42.64 -40.41,-62.95 -1.41,-1.97 -1.4,-4.72 0.19,-6.7l128.01 -159.24c7.22,-8.98 10.76,-19.94 10.37,-30.68 -0.38,-10.33 -4.45,-20.5 -12.44,-28.48l-67.85 -67.85c-7.98,-7.99 -18.14,-12.06 -28.48,-12.44 -10.73,-0.39 -21.69,3.15 -30.68,10.37l-158.44 127.36c-1.91,1.52 -4.66,1.65 -6.72,0.15 -20.22,-14.76 -41.32,-28.57 -63.19,-41.35 -21.84,-12.77 -44.22,-24.39 -67.04,-34.78 -2.19,-1 -3.55,-3.37 -3.16,-5.87l30.94 -200.02c1.76,-11.38 -0.66,-22.64 -6.37,-31.74 -5.51,-8.78 -14.11,-15.55 -25.01,-18.47l-92.67 -24.83c-10.91,-2.92 -21.75,-1.36 -30.91,3.49 -9.49,5.02 -17.21,13.57 -21.37,24.31l-72.62 187.15c-0.81,2.41 -3.2,4.02 -5.83,3.74 -25.34,-2.72 -50.75,-4.11 -76.09,-4.17 -25.39,-0.06 -50.83,1.21 -76.18,3.8 -2.42,0.25 -4.8,-1.13 -5.72,-3.51l-72.57 -187.02c-4.16,-10.74 -11.88,-19.28 -21.37,-24.3 -9.16,-4.85 -20.01,-6.41 -30.91,-3.49l-92.67 24.83c-10.91,2.92 -19.51,9.7 -25.02,18.46 -5.71,9.09 -8.12,20.36 -6.36,31.74l30.63 197.99c0.51,2.49 -0.75,5.09 -3.17,6.16 -23.19,10.39 -45.83,22.02 -67.84,34.79 -21.94,12.73 -43.15,26.56 -63.54,41.41 -1.98,1.67 -4.93,1.76 -7.03,0.08l-156.66 -125.93c-8.98,-7.22 -19.94,-10.76 -30.68,-10.37 -10.33,0.38 -20.5,4.45 -28.48,12.44l-67.85 67.85c-7.99,7.98 -12.06,18.14 -12.44,28.48 -0.39,10.73 3.15,21.7 10.37,30.69l126.8 157.74c1.51,1.88 1.66,4.61 0.19,6.68 -14.63,20.51 -28.2,41.74 -40.66,63.6z"/>
                <path class="fil1" d="M5954.52 2427.56l24.83 -92.68c1.44,-5.38 4.83,-9.43 9.21,-11.96 4.45,-2.57 9.93,-3.54 15.34,-2.71l222.81 34.48c11.93,-29.3 25.77,-57.78 41.41,-85.22 15.64,-27.45 33.09,-53.88 52.21,-79.07l-140.52 -174.81c-3.46,-4.31 -5.37,-9.53 -5.37,-14.65 0.02,-5.08 1.83,-10.04 5.76,-13.97l67.84 -67.84c3.94,-3.94 8.9,-5.75 13.96,-5.75 5.13,0.02 10.37,1.92 14.65,5.36l173.91 139.8c24.95,-19.4 51.37,-37.26 79.13,-53.38 27.31,-15.86 55.91,-30.01 85.64,-42.27l-34.04 -220.03c-0.84,-5.45 0.11,-10.93 2.67,-15.36 2.53,-4.39 6.59,-7.77 11.96,-9.21l92.68 -24.83c5.37,-1.44 10.57,-0.52 14.96,2.01l0.35 0.22c4.28,2.59 7.7,6.76 9.64,11.73l80.54 207.57c31.87,-4.25 63.71,-6.28 95.3,-6.21 32.13,0.08 63.94,2.34 95.22,6.67l80.72 -208.02c1.99,-5.13 5.56,-9.38 10,-11.95 4.39,-2.55 9.59,-3.46 14.96,-2.02l92.68 24.83c5.38,1.44 9.43,4.83 11.96,9.21l0.2 0.39c2.41,4.39 3.31,9.7 2.5,14.95l-34.31 221.69c29.15,12.25 57.48,26.42 84.78,42.38 27.31,15.97 53.53,33.7 78.46,53.07l175.7 -141.23c4.3,-3.46 9.53,-5.37 14.64,-5.37 5.08,0.02 10.04,1.83 13.97,5.76l67.84 67.84c3.94,3.94 5.75,8.9 5.75,13.96 -0.02,5.13 -1.92,10.37 -5.36,14.65l-141.76 176.35c18.91,24.8 36.3,50.95 51.98,78.33 15.45,26.98 29.3,55.24 41.37,84.66l224.28 -34.7c5.44,-0.84 10.91,0.12 15.34,2.67 4.41,2.53 7.79,6.59 9.23,11.96l24.83 92.68c1.44,5.36 0.52,10.55 -2.01,14.94 -2.57,4.45 -6.83,8.03 -11.96,10.02l-211.57 82.09c4.24,31.43 6.37,62.83 6.48,94 0.11,31.62 -1.87,62.97 -5.84,93.84l210.93 81.84c5.15,2 9.41,5.56 11.96,9.99 2.54,4.39 3.44,9.6 2.01,14.97l-24.83 92.68c-1.44,5.37 -4.83,9.43 -9.21,11.96 -4.45,2.57 -9.93,3.54 -15.34,2.71l-222.8 -34.49c-11.93,29.31 -25.78,57.78 -41.41,85.22 -15.64,27.45 -33.09,53.88 -52.22,79.07l140.52 174.81c3.46,4.31 5.37,9.53 5.37,14.65 -0.02,5.08 -1.83,10.04 -5.76,13.97l-67.84 67.84c-3.94,3.94 -8.9,5.75 -13.96,5.75 -5.13,-0.02 -10.37,-1.92 -14.65,-5.36l-173.93 -139.81c-24.95,19.4 -51.37,37.26 -79.13,53.37 -27.31,15.86 -55.89,30 -85.63,42.27l34.04 220.04c0.84,5.44 -0.12,10.91 -2.67,15.34 -2.53,4.41 -6.59,7.79 -11.96,9.23l-92.68 24.83c-5.36,1.44 -10.55,0.52 -14.94,-2.01 -4.45,-2.57 -8.03,-6.83 -10.02,-11.96l-80.55 -207.59c-31.87,4.25 -63.7,6.29 -95.28,6.21 -32.13,-0.07 -63.94,-2.33 -95.22,-6.66l-80.72 208.03c-2,5.15 -5.56,9.41 -9.99,11.96 -4.39,2.54 -9.6,3.44 -14.97,2.01l-92.68 -24.83c-5.37,-1.44 -9.43,-4.83 -11.96,-9.21 -2.57,-4.45 -3.54,-9.93 -2.71,-15.34l34.31 -221.69c-29.15,-12.25 -57.48,-26.41 -84.78,-42.38 -27.31,-15.97 -53.53,-33.7 -78.46,-53.07l-175.69 141.23c-4.31,3.46 -9.53,5.37 -14.65,5.37 -5.08,-0.02 -10.04,-1.83 -13.97,-5.76l-67.84 -67.84c-3.94,-3.94 -5.75,-8.9 -5.75,-13.96 0.02,-5.13 1.92,-10.37 5.36,-14.65l141.76 -176.35c-18.91,-24.8 -36.3,-50.96 -51.98,-78.33 -15.45,-26.98 -29.3,-55.24 -41.37,-84.67l-224.28 34.7c-5.44,0.84 -10.91,-0.12 -15.34,-2.67 -4.41,-2.53 -7.79,-6.59 -9.23,-11.96l-24.83 -92.68c-1.44,-5.36 -0.52,-10.55 2.01,-14.94 2.57,-4.45 6.83,-8.03 11.96,-10.02l211.57 -82.09c-4.24,-31.43 -6.37,-62.82 -6.48,-94 -0.11,-31.62 1.87,-62.97 5.84,-93.84l-210.93 -81.84c-5.15,-2 -9.41,-5.56 -11.96,-9.99 -2.54,-4.39 -3.44,-9.6 -2.01,-14.97zm35.54 -89.82l-24.83 92.68c-0.63,2.35 -0.23,4.63 0.88,6.56 1.31,2.28 3.59,4.15 6.37,5.22l214.79 83.34c2.44,0.84 4.04,3.31 3.68,5.97 -4.29,31.83 -6.43,64.13 -6.32,96.69 0.11,32 2.41,64.33 6.99,96.81 0.34,2.48 -1.05,4.97 -3.49,5.92l-215.66 83.68c-2.78,1.08 -5.06,2.95 -6.37,5.21 -1.11,1.93 -1.51,4.22 -0.88,6.57l24.83 92.68c0.63,2.35 2.12,4.13 4.05,5.24 2.27,1.31 5.17,1.79 8.12,1.33l228.3 -35.32c2.59,-0.55 5.28,0.82 6.3,3.35 12.23,30.34 26.43,59.5 42.37,87.35 16.17,28.23 34.12,55.06 53.63,80.36 1.67,1.98 1.76,4.93 0.07,7.03l-144.48 179.73c-1.87,2.33 -2.91,5.09 -2.91,7.71 0.02,2.23 0.81,4.41 2.52,6.11l67.84 67.84c1.73,1.73 3.91,2.53 6.12,2.53 2.63,-0.02 5.39,-1.06 7.71,-2.92l178.89 -143.8c1.97,-1.76 4.98,-1.91 7.12,-0.22 25.69,20.22 52.66,38.58 80.67,54.96 28.08,16.43 57.3,30.93 87.41,43.36 2.31,0.95 3.76,3.39 3.36,5.96l-34.93 225.93c-0.46,2.98 0.02,5.88 1.32,8.14 1.11,1.93 2.89,3.43 5.23,4.05l92.68 24.83c2.35,0.63 4.63,0.23 6.56,-0.88 2.28,-1.31 4.15,-3.59 5.22,-6.37l82.19 -211.83c0.81,-2.52 3.34,-4.18 6.06,-3.79 32.29,4.67 65.04,7.11 98,7.19 32.44,0.07 65.21,-2.13 98.1,-6.72 2.48,-0.34 4.97,1.05 5.92,3.49l82.13 211.67c1.08,2.78 2.94,5.06 5.21,6.37 1.93,1.11 4.22,1.51 6.57,0.88l92.68 -24.83c2.34,-0.63 4.13,-2.12 5.24,-4.05 1.31,-2.27 1.79,-5.17 1.33,-8.12l-34.64 -223.93c-0.63,-2.62 0.73,-5.39 3.31,-6.43 30.76,-12.46 60.23,-26.94 88.29,-43.23 28.54,-16.56 55.69,-35.05 81.3,-55.22 1.98,-1.55 4.85,-1.6 6.89,0.04l177.35 142.57c2.33,1.87 5.09,2.91 7.71,2.91 2.23,-0.02 4.41,-0.81 6.11,-2.52l67.84 -67.84c1.73,-1.73 2.53,-3.91 2.53,-6.12 -0.02,-2.63 -1.06,-5.39 -2.92,-7.71l-143.24 -178.19c-1.56,-1.95 -1.66,-4.79 -0.06,-6.85 19.85,-25.81 37.9,-52.97 54.01,-81.24 16.1,-28.26 30.28,-57.65 42.39,-87.94 0.94,-2.33 3.39,-3.8 5.98,-3.4l227.1 35.11c2.98,0.46 5.88,-0.02 8.14,-1.32 1.93,-1.11 3.43,-2.89 4.05,-5.23l24.83 -92.68c0.63,-2.35 0.23,-4.63 -0.88,-6.56 -1.31,-2.28 -3.59,-4.15 -6.37,-5.22l-214.79 -83.34c-2.44,-0.84 -4.04,-3.31 -3.68,-5.97 4.29,-31.83 6.43,-64.13 6.32,-96.69 -0.11,-31.99 -2.41,-64.33 -6.99,-96.81 -0.34,-2.48 1.05,-4.97 3.49,-5.92l215.66 -83.68c2.78,-1.08 5.06,-2.94 6.37,-5.21 1.11,-1.93 1.51,-4.22 0.88,-6.57l-24.83 -92.68c-0.63,-2.34 -2.12,-4.13 -4.05,-5.24 -2.27,-1.31 -5.17,-1.79 -8.12,-1.33l-228.3 35.32c-2.59,0.55 -5.28,-0.82 -6.3,-3.35 -12.23,-30.33 -26.43,-59.5 -42.37,-87.35 -16.17,-28.24 -34.12,-55.07 -53.64,-80.36 -1.67,-1.98 -1.76,-4.93 -0.07,-7.03l144.48 -179.73c1.87,-2.33 2.91,-5.09 2.91,-7.71 -0.02,-2.23 -0.81,-4.41 -2.52,-6.11l-67.84 -67.84c-1.73,-1.73 -3.91,-2.53 -6.12,-2.53 -2.63,0.02 -5.39,1.06 -7.7,2.92l-178.89 143.8c-1.97,1.76 -4.98,1.91 -7.12,0.22 -25.69,-20.22 -52.66,-38.58 -80.67,-54.96 -28.08,-16.43 -57.3,-30.93 -87.41,-43.37 -2.31,-0.95 -3.76,-3.39 -3.36,-5.96l34.93 -225.92c0.44,-2.87 0.02,-5.68 -1.18,-7.91l-0.15 -0.24c-1.11,-1.93 -2.89,-3.43 -5.23,-4.05l-92.68 -24.83c-2.35,-0.63 -4.63,-0.23 -6.56,0.88 -2.28,1.3 -4.14,3.57 -5.22,6.37l-82.19 211.82c-0.81,2.52 -3.34,4.18 -6.06,3.79 -32.3,-4.67 -65.05,-7.12 -98.01,-7.2 -32.44,-0.07 -65.22,2.12 -98.11,6.71 -2.48,0.34 -4.97,-1.05 -5.92,-3.49l-82.12 -211.65c-1.04,-2.69 -2.81,-4.89 -4.96,-6.22l-0.27 -0.15c-1.93,-1.11 -4.21,-1.52 -6.56,-0.89l-92.68 24.83c-2.35,0.63 -4.13,2.12 -5.24,4.05 -1.31,2.27 -1.79,5.17 -1.33,8.12l34.64 223.91c0.63,2.62 -0.73,5.39 -3.31,6.43 -30.77,12.46 -60.25,26.94 -88.3,43.23 -28.54,16.57 -55.69,35.05 -81.3,55.22 -1.98,1.55 -4.85,1.6 -6.89,-0.04l-177.34 -142.56c-2.33,-1.87 -5.09,-2.91 -7.71,-2.91 -2.23,0.02 -4.41,0.81 -6.11,2.52l-67.84 67.84c-1.73,1.73 -2.53,3.91 -2.53,6.12 0.02,2.63 1.06,5.39 2.92,7.71l143.24 178.19c1.56,1.95 1.66,4.79 0.06,6.85 -19.84,25.81 -37.89,52.96 -54,81.24 -16.1,28.26 -30.28,57.65 -42.4,87.95 -0.94,2.33 -3.39,3.8 -5.98,3.4l-227.1 -35.11c-2.98,-0.46 -5.88,0.02 -8.14,1.32 -1.93,1.11 -3.43,2.89 -4.05,5.23z"/>
                <path class="fil1" d="M6734.02 2048.28c160.17,-42.92 322.6,-16.84 455.71,60.01 133.12,76.85 236.93,204.5 279.85,364.68 42.92,160.17 16.84,322.6 -60.01,455.71 -76.85,133.12 -204.5,236.93 -364.68,279.85 -160.17,42.92 -322.6,16.84 -455.71,-60.01 -133.12,-76.85 -236.93,-204.5 -279.85,-364.68 -42.92,-160.17 -16.84,-322.6 60.01,-455.71 76.85,-133.12 204.5,-236.93 364.68,-279.85zm450.21 69.59c-130.65,-75.43 -290.09,-101.02 -447.35,-58.88 -157.25,42.13 -282.53,144.01 -357.95,274.64 -75.43,130.65 -101.02,290.09 -58.88,447.35 42.13,157.25 144.01,282.53 274.64,357.95 130.65,75.43 290.09,101.02 447.35,58.88 157.25,-42.13 282.53,-144.01 357.95,-274.64 75.43,-130.65 101.02,-290.09 58.88,-447.35 -42.13,-157.25 -144.01,-282.53 -274.64,-357.95z"/>
                <path class="fil1" d="M6725.22 2015.46c168.24,-45.08 338.96,-17.29 478.93,64.09 139.98,81.37 249.24,216.35 294.59,385.59 45.35,169.24 18.22,340.75 -62.31,481.2 -80.54,140.47 -214.49,249.91 -382.74,294.99 -168.24,45.08 -338.96,17.29 -478.93,-64.09 -139.98,-81.37 -249.24,-216.35 -294.59,-385.59 -45.35,-169.24 -18.22,-340.75 62.31,-481.2 80.54,-140.47 214.49,-249.91 382.74,-294.99zm473.38 73.68c-137.52,-79.95 -305.23,-107.26 -470.52,-62.97 -165.28,44.28 -296.86,151.79 -375.98,289.78 -79.12,138.01 -105.78,306.54 -61.22,472.84 44.56,166.3 151.91,298.92 289.43,378.87 137.52,79.95 305.23,107.26 470.52,62.97 165.28,-44.28 296.86,-151.79 375.98,-289.78 79.12,-138.01 105.78,-306.54 61.22,-472.84 -44.56,-166.3 -151.91,-298.92 -289.43,-378.87z"/>
                <path class="fil1" d="M2500.01 1292.85c15.16,-3.15 30.17,-6.05 45.02,-8.69 14.98,-2.65 30.03,-5.09 45.14,-7.31l-9.75 -111.44c-0.49,-5.62 1.37,-10.94 4.75,-14.97 3.39,-4.04 8.31,-6.8 13.94,-7.28l135.89 -11.89c5.62,-0.49 10.94,1.37 14.97,4.74 4.04,3.39 6.8,8.31 7.28,13.94l9.73 111.26c15.26,-0.46 30.57,-0.7 45.87,-0.71 15.32,-0.01 30.57,0.22 45.74,0.67l9.73 -111.22c0.49,-5.63 3.25,-10.56 7.28,-13.94 4.03,-3.38 9.35,-5.24 14.97,-4.74l136.14 11.91c5.52,0.54 10.36,3.28 13.69,7.26 3.34,3.98 5.19,9.21 4.76,14.74l-9.76 111.5c15.2,2.23 30.29,4.67 45.25,7.32 14.96,2.65 29.95,5.54 44.95,8.67l28.93 -107.95c1.46,-5.45 5.04,-9.82 9.6,-12.46 4.56,-2.63 10.12,-3.54 15.56,-2.07l131.76 35.31c5.46,1.46 9.83,5.02 12.45,9.57 2.63,4.56 3.54,10.12 2.08,15.58l-28.98 108.16c14.4,4.78 28.82,9.81 43.25,15.07 14.38,5.24 28.64,10.69 42.75,16.32l47.36 -101.56c2.38,-5.11 6.66,-8.8 11.61,-10.6 4.94,-1.8 10.58,-1.72 15.69,0.66l124.15 57.92c4.85,2.43 8.35,6.57 10.08,11.34 1.76,4.85 1.72,10.36 -0.52,15.39l-47.56 102c13.59,7.32 26.97,14.78 40.11,22.37l0.3 0.19c13.27,7.66 26.23,15.4 38.87,23.21l64.35 -91.91c3.25,-4.64 8.09,-7.54 13.26,-8.44 5.16,-0.91 10.69,0.15 15.32,3.4l111.75 78.24c4.64,3.25 7.53,8.09 8.44,13.26 0.91,5.15 -0.15,10.69 -3.39,15.32l-64.33 91.87c12.18,9.59 24.09,19.26 35.72,28.99 11.48,9.61 22.97,19.53 34.48,29.77l79.22 -79.22c4,-4 9.27,-6 14.53,-6 5.25,0.03 10.52,2.02 14.52,6.02l96.47 96.45c4,4 6,9.27 6,14.52 0,5.24 -2,10.5 -5.99,14.5l-79.12 79.14c9.95,11.14 19.94,22.66 29.94,34.56 10.02,11.92 19.71,23.77 29.02,35.55l92.06 -64.46c4.53,-2.97 9.85,-3.93 14.81,-3.05 4.98,0.87 9.65,3.59 12.9,7.94 0.25,0.29 0.47,0.59 0.65,0.92l78.29 111.82c2.98,4.53 3.94,9.85 3.06,14.82 -0.87,4.98 -3.59,9.66 -7.94,12.9 -0.29,0.25 -0.59,0.47 -0.92,0.65l-91.11 63.8c7.91,12.82 15.78,25.98 23.57,39.5 7.61,13.19 15.02,26.48 22.21,39.87l101.78 -47.44c5,-2.18 10.43,-2.2 15.21,-0.46 4.95,1.8 9.23,5.48 11.61,10.6l57.85 124.11c2.18,4.99 2.2,10.43 0.46,15.21 -1.8,4.94 -5.48,9.21 -10.59,11.59l-101.51 47.35c5.58,14.04 11,28.26 16.24,42.64 5.26,14.44 10.3,28.91 15.08,43.4l108.19 -28.99c5.45,-1.46 11.02,-0.56 15.57,2.08l0.36 0.23c4.39,2.65 7.8,6.93 9.22,12.22l35.31 131.77c1.46,5.44 0.55,11 -2.08,15.55 -2.63,4.57 -7,8.14 -12.45,9.6l-108.19 28.98c3.15,15.16 6.05,30.16 8.69,45.01 2.66,14.98 5.09,30.04 7.32,45.15l111.49 -9.75c5.62,-0.49 10.94,1.37 14.97,4.75 4.04,3.39 6.8,8.31 7.28,13.94l11.89 135.89c0.49,5.61 -1.36,10.94 -4.74,14.97 -3.39,4.04 -8.31,6.79 -13.94,7.28l-111.3 9.74c0.46,15.24 0.7,30.51 0.71,45.79 0.01,15.34 -0.22,30.62 -0.66,45.81l111.25 9.73c5.63,0.49 10.56,3.25 13.94,7.28 3.38,4.03 5.24,9.35 4.74,14.97l-11.91 136.14c-0.54,5.52 -3.28,10.36 -7.26,13.69 -3.98,3.34 -9.21,5.19 -14.75,4.76l-111.51 -9.76c-2.23,15.22 -4.68,30.33 -7.32,45.31 -2.65,14.94 -5.53,29.91 -8.65,44.89l108.35 29.04c5.28,1.53 9.5,5.03 12.07,9.47l0.2 0.39c2.41,4.38 3.25,9.63 1.97,14.8l-35.41 132.15c-1.46,5.46 -5.02,9.83 -9.57,12.45 -4.56,2.63 -10.13,3.54 -15.58,2.08l-108.15 -28.98c-4.78,14.41 -9.81,28.85 -15.09,43.29 -5.24,14.37 -10.69,28.62 -16.31,42.72l101.55 47.35c5.11,2.39 8.8,6.66 10.6,11.61 1.8,4.95 1.72,10.58 -0.66,15.69l-57.65 123.63c-2.39,5.11 -6.66,8.8 -11.61,10.59 -4.94,1.8 -10.58,1.72 -15.69,-0.66l-101.68 -47.41c-7.23,13.42 -14.69,26.78 -22.36,40.07 -7.72,13.39 -15.53,26.46 -23.41,39.22l92 64.43c4.57,3.24 7.42,8.05 8.33,13.17 0.91,5.16 -0.15,10.69 -3.39,15.32l-78.25 111.74c-3.26,4.65 -8.1,7.54 -13.26,8.45 -5.15,0.91 -10.68,-0.15 -15.31,-3.39l-91.89 -64.34c-9.61,12.2 -19.3,24.13 -29.04,35.77 -9.59,11.45 -19.5,22.94 -29.73,34.43l79.24 79.24c4,4 6,9.27 6,14.53 0,5.26 -2,10.53 -6,14.53l-96.46 96.46c-4,4 -9.27,6 -14.53,6 -5.24,0 -10.5,-2 -14.5,-6l-79.17 -79.15c-11.15,9.94 -22.67,19.93 -34.56,29.93 -11.92,10.02 -23.77,19.7 -35.55,29.01l64.15 91.61c3.24,4.63 4.3,10.17 3.4,15.32 -0.91,5.17 -3.8,10.01 -8.45,13.27l-112.23 78.57c-4.53,2.98 -9.85,3.94 -14.83,3.06 -4.98,-0.88 -9.67,-3.59 -12.91,-7.95 -0.25,-0.29 -0.47,-0.59 -0.65,-0.91l-63.84 -91.17c-12.91,7.97 -25.98,15.79 -39.24,23.44 -13.11,7.57 -26.48,15.03 -40.11,22.35l47.47 101.86c2.17,4.99 2.19,10.42 0.45,15.19 -1.8,4.94 -5.48,9.2 -10.59,11.59l-123.79 57.74c-5.07,2.31 -10.64,2.37 -15.54,0.59 -4.94,-1.8 -9.2,-5.48 -11.59,-10.59l-47.35 -101.51c-14.05,5.57 -28.27,10.99 -42.65,16.22 -14.44,5.26 -28.92,10.29 -43.4,15.07l29 108.21c1.46,5.45 0.56,11.02 -2.08,15.58l-0.23 0.36c-2.66,4.39 -6.93,7.8 -12.22,9.21l-131.76 35.31c-5.46,1.46 -11.02,0.56 -15.57,-2.07 -4.55,-2.63 -8.11,-6.99 -9.57,-12.45l-28.98 -108.15c-15.14,3.15 -30.13,6.04 -44.96,8.67 -15,2.66 -30.08,5.1 -45.2,7.33l9.75 111.52c0.47,5.57 -1.39,10.86 -4.76,14.88 -3.37,4.04 -8.3,6.8 -13.92,7.29l-135.89 11.89c-5.62,0.49 -10.94,-1.36 -14.97,-4.74 -4.04,-3.38 -6.79,-8.31 -7.29,-13.94l-9.74 -111.26c-15.25,0.46 -30.53,0.7 -45.81,0.7 -15.33,0.01 -30.61,-0.22 -45.8,-0.66l-9.73 111.22c-0.49,5.63 -3.25,10.56 -7.28,13.94 -4.03,3.38 -9.35,5.24 -14.97,4.74l-136.14 -11.91c-5.52,-0.54 -10.36,-3.28 -13.69,-7.26 -3.34,-3.98 -5.19,-9.21 -4.76,-14.74l9.75 -111.49c-15.2,-2.23 -30.28,-4.67 -45.24,-7.31 -14.96,-2.65 -29.96,-5.54 -44.96,-8.67l-28.97 108.11c-1.49,5.39 -5.02,9.69 -9.53,12.29 -4.56,2.63 -10.12,3.54 -15.57,2.08l-131.77 -35.31c-5.44,-1.46 -9.81,-5.03 -12.44,-9.59 -2.64,-4.54 -3.55,-10.11 -2.09,-15.57l28.98 -108.14c-14.43,-4.8 -28.89,-9.84 -43.36,-15.11 -14.35,-5.24 -28.57,-10.67 -42.65,-16.29l-47.35 101.54c-2.38,5.11 -6.66,8.8 -11.61,10.6 -4.95,1.8 -10.58,1.72 -15.69,-0.66l-123.63 -57.65c-5.11,-2.39 -8.8,-6.66 -10.59,-11.61 -1.8,-4.94 -1.72,-10.58 0.66,-15.69l47.41 -101.69c-13.45,-7.25 -26.85,-14.73 -40.17,-22.41 -13.2,-7.61 -26.24,-15.39 -39.11,-23.34l-64.43 92.01c-3.24,4.57 -8.05,7.43 -13.17,8.32 -5.16,0.91 -10.68,-0.15 -15.31,-3.39l-111.76 -78.25c-4.64,-3.25 -7.54,-8.09 -8.44,-13.26 -0.91,-5.16 0.15,-10.69 3.39,-15.32l64.32 -91.86c-12.21,-9.62 -24.15,-19.31 -35.79,-29.06 -11.45,-9.59 -22.93,-19.49 -34.42,-29.71l-79.22 79.22c-4,4 -9.28,6 -14.53,6 -5.24,0 -10.5,-2 -14.49,-5.99l-96.5 -96.47c-4,-4 -6,-9.27 -6,-14.53 0,-5.24 2,-10.5 6,-14.5l79.11 -79.13c-9.94,-11.15 -19.93,-22.67 -29.94,-34.56 -10.02,-11.9 -19.71,-23.76 -29.02,-35.54l-91.56 64.11c-4.63,3.24 -10.16,4.3 -15.31,3.39 -5.17,-0.91 -10.02,-3.81 -13.26,-8.45l-78.59 -112.25c-2.98,-4.53 -3.93,-9.85 -3.06,-14.81 0.87,-4.98 3.59,-9.66 7.94,-12.9 0.29,-0.25 0.59,-0.47 0.92,-0.65l91.1 -63.79c-7.96,-12.91 -15.78,-25.99 -23.43,-39.24 -7.57,-13.11 -15.03,-26.49 -22.35,-40.11l-101.3 47.23c-5.11,2.38 -10.74,2.45 -15.69,0.65 -4.94,-1.8 -9.2,-5.48 -11.59,-10.59l-57.67 -123.64c-2.38,-5.12 -2.46,-10.74 -0.66,-15.69 1.8,-4.94 5.47,-9.19 10.59,-11.58l101.51 -47.36c-5.57,-14.05 -11,-28.26 -16.23,-42.64 -5.26,-14.44 -10.3,-28.91 -15.08,-43.4l-108.19 28.99c-5.45,1.46 -11.02,0.56 -15.57,-2.08l-0.36 -0.23c-4.39,-2.65 -7.8,-6.93 -9.22,-12.22l-35.31 -131.77c-1.46,-5.45 -0.56,-11.02 2.08,-15.57l0.23 -0.36c2.65,-4.39 6.93,-7.8 12.22,-9.22l108.18 -28.98c-3.15,-15.15 -6.05,-30.17 -8.68,-45.01 -2.66,-14.98 -5.1,-30.04 -7.32,-45.15l-111.56 9.76c-5.57,0.47 -10.86,-1.39 -14.88,-4.76 -4.04,-3.37 -6.8,-8.3 -7.29,-13.92l-11.89 -135.9c-0.49,-5.62 1.36,-10.94 4.74,-14.97 3.38,-4.04 8.31,-6.79 13.94,-7.28l111.29 -9.74c-0.46,-15.25 -0.7,-30.52 -0.7,-45.81 -0.01,-15.33 0.22,-30.61 0.66,-45.8l-111.25 -9.73c-5.63,-0.49 -10.56,-3.25 -13.94,-7.28 -3.38,-4.03 -5.24,-9.35 -4.74,-14.97l11.89 -135.89c0.5,-5.63 3.26,-10.56 7.29,-13.94 4.03,-3.38 9.35,-5.23 14.97,-4.74l111.29 9.73c2.23,-15.2 4.67,-30.3 7.31,-45.26 2.65,-14.96 5.54,-29.94 8.66,-44.94l-107.96 -28.93c-5.45,-1.46 -9.82,-5.04 -12.45,-9.6 -2.63,-4.56 -3.53,-10.11 -2.07,-15.56l35.3 -131.76c1.46,-5.46 5.03,-9.83 9.57,-12.45l0.39 -0.2c4.48,-2.47 9.89,-3.29 15.19,-1.87l108.16 28.98c4.78,-14.41 9.81,-28.84 15.09,-43.28 5.24,-14.37 10.69,-28.62 16.31,-42.72l-102.03 -47.6c-4.87,-2.43 -8.39,-6.59 -10.13,-11.37 -1.8,-4.95 -1.72,-10.58 0.66,-15.69l57.65 -123.63c2.39,-5.11 6.66,-8.8 11.61,-10.59 4.94,-1.8 10.58,-1.72 15.69,0.66l101.68 47.42c7.23,-13.42 14.69,-26.78 22.36,-40.07 7.72,-13.38 15.53,-26.47 23.4,-39.22l-92.01 -64.43c-4.57,-3.25 -7.42,-8.06 -8.32,-13.18 -0.91,-5.16 0.15,-10.69 3.39,-15.32l78.24 -111.74c3.25,-4.64 8.09,-7.54 13.26,-8.45 5.15,-0.91 10.69,0.15 15.32,3.4l91.88 64.33c9.55,-12.11 19.17,-23.97 28.84,-35.52 9.65,-11.54 19.63,-23.11 29.93,-34.68l-79.57 -79.61c-3.77,-3.95 -5.66,-9.06 -5.66,-14.15 0.03,-5.28 2.02,-10.55 6,-14.53l96.46 -96.46c4,-4 9.27,-6 14.53,-6 5.26,0 10.53,2 14.53,6l79.13 79.14c11.22,-10.01 22.81,-20.05 34.78,-30.11 11.85,-9.96 23.63,-19.58 35.33,-28.83l-64.14 -91.61c-3.24,-4.63 -4.3,-10.17 -3.4,-15.32 0.91,-5.17 3.8,-10.01 8.45,-13.27l111.74 -78.24c4.63,-3.24 10.16,-4.31 15.32,-3.4 5.17,0.91 10.01,3.8 13.27,8.45l64.13 91.58c12.9,-7.97 25.98,-15.79 39.23,-23.44 13.11,-7.57 26.48,-15.03 40.11,-22.35l-47.26 -101.35c-2.38,-5.11 -2.46,-10.75 -0.66,-15.69 1.8,-4.96 5.48,-9.23 10.6,-11.61l123.63 -57.65c5.11,-2.38 10.74,-2.46 15.69,-0.66 4.95,1.8 9.23,5.48 11.61,10.59l47.32 101.5c14.05,-5.58 28.27,-11 42.65,-16.22 14.44,-5.26 28.92,-10.29 43.41,-15.07l-28.99 -108.2c-1.46,-5.45 -0.56,-11.02 2.08,-15.58l0.23 -0.36c2.65,-4.39 6.93,-7.8 12.22,-9.22l131.76 -35.31c5.45,-1.46 11.02,-0.56 15.57,2.08l0.36 0.23c4.39,2.65 7.8,6.93 9.22,12.22l28.97 108.14zm46.93 2.24c-16.67,2.96 -33.18,6.16 -49.48,9.61 -2.97,0.79 -6.01,-0.96 -6.8,-3.92l-30.33 -113.2c-0.65,-2.41 -2.19,-4.37 -4.16,-5.59l-0.26 -0.14c-2.09,-1.21 -4.66,-1.62 -7.17,-0.95l-131.76 35.31c-2.41,0.64 -4.37,2.18 -5.59,4.15l-0.14 0.26c-1.21,2.09 -1.62,4.66 -0.95,7.17l30.35 113.26c0.75,2.82 -0.83,5.78 -3.64,6.7 -16.29,5.31 -32.31,10.84 -48.06,16.57 -15.7,5.71 -31.32,11.69 -46.85,17.91l-0.04 0.02c-2.78,1.29 -6.08,0.09 -7.37,-2.69l-49.54 -106.24c-1.1,-2.36 -3.06,-4.06 -5.33,-4.88 -2.27,-0.83 -4.88,-0.79 -7.24,0.31l-123.63 57.65c-2.36,1.1 -4.06,3.06 -4.88,5.33 -0.83,2.27 -0.79,4.87 0.31,7.23l49.47 106.09c1.22,2.65 0.18,5.83 -2.43,7.22 -14.83,7.9 -29.64,16.13 -44.4,24.66 -14.59,8.42 -29.05,17.11 -43.38,26.03 -2.48,1.53 -5.76,0.88 -7.46,-1.54l-67.13 -95.88c-1.48,-2.11 -3.71,-3.44 -6.11,-3.86 -2.4,-0.42 -4.96,0.06 -7.08,1.54l-111.74 78.24c-2.11,1.48 -3.44,3.72 -3.86,6.11 -0.42,2.41 0.06,4.97 1.54,7.09l66.97 95.63c1.89,2.41 1.47,5.89 -0.93,7.78 -13.54,10.63 -26.61,21.24 -39.18,31.81 -12.65,10.64 -25.38,21.71 -38.17,33.2 -2.18,2.18 -5.7,2.18 -7.86,0.01l-82.84 -82.85c-1.83,-1.83 -4.26,-2.75 -6.68,-2.75 -2.42,0 -4.85,0.92 -6.68,2.75l-96.45 96.46c-1.85,1.85 -2.78,4.28 -2.78,6.68 0.02,2.32 0.86,4.65 2.53,6.44l83.17 83.16c2.04,2.07 2.16,5.41 0.19,7.61 -11.1,12.4 -22.17,25.19 -33.17,38.34 -10.98,13.12 -21.6,26.24 -31.86,39.34 -1.8,2.3 -5.1,2.82 -7.52,1.13l-96.16 -67.33c-2.12,-1.48 -4.69,-1.96 -7.09,-1.54 -2.39,0.42 -4.63,1.75 -6.11,3.86l-78.47 112.09c-1.3,2.05 -1.71,4.46 -1.31,6.74 0.4,2.27 1.61,4.39 3.53,5.87 29.85,21.3 65.69,48.59 96.27,67.41 2.59,1.61 3.39,5.04 1.78,7.63 -9.05,14.55 -17.72,29 -25.98,43.32 -8.36,14.48 -16.52,29.17 -24.46,44.02l-0.06 0.13c-1.29,2.78 -4.59,3.98 -7.37,2.69l-106.42 -49.63c-2.36,-1.1 -4.96,-1.14 -7.23,-0.31 -2.27,0.82 -4.23,2.52 -5.33,4.88l-57.65 123.63c-1.1,2.36 -1.14,4.96 -0.31,7.24 0.8,2.18 2.38,4.07 4.57,5.2l106.62 49.7c2.64,1.24 3.89,4.35 2.8,7.09 -6.33,15.7 -12.38,31.46 -18.14,47.25 -5.73,15.7 -11.25,31.64 -16.55,47.78 -0.84,2.87 -3.83,4.57 -6.75,3.79l-113.21 -30.33c-2.42,-0.65 -4.89,-0.29 -6.94,0.81l-0.23 0.14c-2.1,1.21 -3.75,3.23 -4.42,5.73l-35.3 131.76c-0.67,2.52 -0.26,5.1 0.95,7.19 1.2,2.09 3.22,3.72 5.73,4.4l113.03 30.28c2.83,0.76 4.6,3.61 3.99,6.5 -3.47,16.39 -6.69,32.96 -9.65,49.69 -2.94,16.61 -5.61,33.23 -7.98,49.81 -0.26,3.05 -2.95,5.31 -6,5.05l-116.5 -10.19c-2.59,-0.22 -5.05,0.63 -6.91,2.19 -1.85,1.55 -3.12,3.81 -3.34,6.4l-11.89 135.89c-0.23,2.59 0.63,5.05 2.19,6.91 1.55,1.85 3.81,3.11 6.4,3.34l116.46 10.19c2.91,0.26 5.14,2.75 5.05,5.7 -0.55,16.91 -0.83,33.82 -0.82,50.7 0,16.65 0.3,33.41 0.86,50.25l0.02 0.15c0.26,3.05 -2,5.74 -5.05,6l-116.51 10.19c-2.58,0.22 -4.85,1.49 -6.4,3.34 -1.56,1.85 -2.41,4.31 -2.19,6.91l11.91 136.04c0.26,2.52 1.51,4.72 3.32,6.24 1.8,1.54 4.2,2.38 6.75,2.2l116.83 -10.22c2.91,-0.24 5.55,1.82 5.96,4.75 2.37,16.57 5.06,33.25 8.03,50 2.95,16.66 6.16,33.17 9.6,49.47 0.79,2.97 -0.96,6.01 -3.92,6.8l-113.24 30.34c-2.41,0.65 -4.37,2.19 -5.59,4.16l-0.14 0.26c-1.21,2.09 -1.62,4.66 -0.95,7.17l35.31 131.77c0.64,2.41 2.18,4.37 4.15,5.58l0.26 0.14c2.09,1.21 4.66,1.62 7.17,0.95l113.24 -30.34c2.82,-0.75 5.78,0.83 6.7,3.64 5.31,16.29 10.85,32.3 16.59,48.05 5.72,15.69 11.7,31.31 17.92,46.85l0.02 0.04c1.29,2.78 0.09,6.08 -2.69,7.37l-106.24 49.55c-2.35,1.08 -4.05,3.05 -4.88,5.32 -0.83,2.26 -0.79,4.86 0.3,7.22l57.66 123.65c1.08,2.35 3.05,4.05 5.33,4.88 2.27,0.83 4.87,0.79 7.23,-0.31l106.04 -49.44c2.65,-1.22 5.83,-0.18 7.22,2.43 7.9,14.83 16.13,29.64 24.65,44.41 8.42,14.58 17.1,29.06 26.02,43.39 1.53,2.48 0.88,5.76 -1.54,7.46l-95.82 67.09c-2.11,1.48 -3.43,3.71 -3.85,6.1 -0.42,2.39 0.06,4.93 1.51,7.04l78.28 111.79c1.48,2.11 3.71,3.44 6.11,3.86 2.4,0.42 4.97,-0.06 7.08,-1.54l95.58 -66.94c2.41,-1.89 5.89,-1.47 7.78,0.93 10.68,13.61 21.35,26.74 32,39.39 10.57,12.56 21.6,25.22 33.03,37.95 2.18,2.18 2.18,5.7 0.01,7.86l-82.81 82.81c-1.83,1.82 -2.75,4.24 -2.75,6.68 0,2.42 0.92,4.85 2.75,6.67l96.47 96.46c1.82,1.83 4.24,2.75 6.67,2.75 2.42,0 4.85,-0.92 6.67,-2.74l82.92 -82.92c2.07,-2.04 5.41,-2.16 7.61,-0.19 12.31,11.03 25.01,22.02 38.07,32.95 13.21,11.05 26.42,21.75 39.61,32.08 2.3,1.8 2.82,5.1 1.13,7.52l-67.32 96.14c-1.48,2.11 -1.96,4.68 -1.54,7.09 0.42,2.39 1.74,4.63 3.85,6.1l112.09 78.48c2.05,1.3 4.46,1.7 6.74,1.3 2.27,-0.4 4.39,-1.61 5.86,-3.52 21.29,-29.77 48.63,-65.74 67.43,-96.28 1.61,-2.59 5.04,-3.39 7.63,-1.78 14.31,8.91 28.74,17.55 43.24,25.93 14.5,8.38 29.21,16.56 44.09,24.52l0.13 0.06c2.78,1.29 3.98,4.59 2.69,7.37l-49.62 106.42c-1.1,2.36 -1.14,4.96 -0.31,7.23 0.82,2.27 2.52,4.23 4.88,5.33l123.63 57.65c2.36,1.1 4.96,1.14 7.24,0.31 2.26,-0.82 4.23,-2.52 5.33,-4.88l49.57 -106.29c1.24,-2.64 4.35,-3.89 7.09,-2.8 15.67,6.32 31.41,12.36 47.17,18.11 15.72,5.74 31.69,11.27 47.85,16.58 2.87,0.84 4.57,3.83 3.79,6.74l-30.33 113.19c-0.67,2.51 -0.26,5.08 0.95,7.17 1.2,2.11 3.22,3.75 5.73,4.42l131.76 35.3c2.52,0.67 5.08,0.26 7.17,-0.95 2.1,-1.21 3.74,-3.22 4.41,-5.72l30.28 -113.02c0.76,-2.83 3.61,-4.6 6.5,-3.99 16.39,3.47 32.98,6.69 49.72,9.66 16.61,2.94 33.22,5.61 49.8,7.98 3.05,0.26 5.31,2.95 5.05,6l-10.19 116.48c-0.23,2.59 0.63,5.04 2.19,6.9 1.54,1.84 3.8,3.11 6.36,3.33l135.93 11.89c2.59,0.23 5.05,-0.63 6.91,-2.19 1.85,-1.55 3.11,-3.81 3.34,-6.4l10.19 -116.43c0.26,-2.91 2.75,-5.14 5.7,-5.05 16.91,0.55 33.82,0.83 50.7,0.82 16.65,-0 33.41,-0.3 50.25,-0.86l0.15 -0.02c3.05,-0.26 5.74,2 6,5.05l10.19 116.48c0.22,2.58 1.49,4.85 3.34,6.4 1.85,1.56 4.31,2.41 6.91,2.19l136.04 -11.91c2.52,-0.26 4.72,-1.51 6.24,-3.32 1.54,-1.8 2.38,-4.2 2.2,-6.75l-10.22 -116.8c-0.24,-2.91 1.82,-5.55 4.75,-5.96 16.59,-2.38 33.29,-5.06 50.06,-8.04 16.65,-2.95 33.13,-6.15 49.42,-9.59 2.97,-0.79 6.01,0.96 6.8,3.92l30.34 113.22c0.67,2.5 2.32,4.51 4.42,5.72 2.07,1.19 4.59,1.61 7.07,0.98l131.86 -35.33c2.42,-0.65 4.37,-2.18 5.59,-4.15l0.14 -0.26c1.21,-2.09 1.62,-4.66 0.95,-7.17l-30.35 -113.27c-0.75,-2.82 0.83,-5.78 3.64,-6.7 16.29,-5.31 32.31,-10.84 48.05,-16.57 15.7,-5.71 31.32,-11.69 46.85,-17.91l0.04 -0.02c2.78,-1.29 6.08,-0.09 7.37,2.69l49.7 106.62c1.12,2.16 3,3.72 5.16,4.5 2.22,0.81 4.75,0.79 7.07,-0.24 41.59,-18.57 82.57,-39.34 124.17,-57.89 2.16,-1.12 3.72,-3.01 4.5,-5.16 0.79,-2.17 0.8,-4.63 -0.14,-6.88l-49.65 -106.45c-1.22,-2.65 -0.18,-5.83 2.43,-7.22 14.83,-7.9 29.63,-16.13 44.39,-24.66 14.58,-8.42 29.04,-17.11 43.39,-26.02 2.48,-1.53 5.76,-0.88 7.46,1.54l67.14 95.89c1.48,2.11 3.71,3.43 6.11,3.85 2.39,0.42 4.93,-0.06 7.04,-1.51l111.78 -78.27c2.11,-1.48 3.44,-3.72 3.86,-6.11 0.42,-2.4 -0.06,-4.96 -1.54,-7.08l-66.98 -95.64c-1.89,-2.41 -1.47,-5.89 0.93,-7.78 13.61,-10.69 26.75,-21.35 39.39,-31.99 12.57,-10.58 25.23,-21.59 37.95,-33.02 2.18,-2.18 5.7,-2.18 7.86,-0.01l82.85 82.85c1.82,1.83 4.25,2.75 6.68,2.75 2.42,0 4.85,-0.92 6.67,-2.75l96.46 -96.46c1.83,-1.83 2.75,-4.26 2.75,-6.68 0,-2.42 -0.92,-4.85 -2.75,-6.68l-82.93 -82.93c-2.04,-2.07 -2.16,-5.41 -0.19,-7.61 11.03,-12.32 22.03,-25.03 32.96,-38.09 11.05,-13.19 21.74,-26.4 32.07,-39.59 1.8,-2.3 5.1,-2.82 7.52,-1.13l96.17 67.33c2.11,1.48 4.67,1.96 7.08,1.54 2.37,-0.42 4.59,-1.72 6.07,-3.8 24.06,-37.42 53.04,-75.18 78.51,-112.14 1.3,-2.05 1.7,-4.46 1.31,-6.74 -0.4,-2.26 -1.61,-4.39 -3.53,-5.86 -29.85,-21.3 -65.69,-48.59 -96.27,-67.41 -2.59,-1.61 -3.39,-5.04 -1.78,-7.63 9.05,-14.55 17.72,-29 25.99,-43.32 8.36,-14.48 16.52,-29.17 24.46,-44.02l0.06 -0.13c1.29,-2.78 4.59,-3.98 7.37,-2.69l106.41 49.62c2.36,1.1 4.96,1.14 7.23,0.31 2.27,-0.82 4.23,-2.52 5.33,-4.88l57.65 -123.63c1.1,-2.36 1.14,-4.96 0.31,-7.24 -0.82,-2.27 -2.52,-4.23 -4.88,-5.33l-106.3 -49.57c-2.64,-1.24 -3.89,-4.35 -2.8,-7.09 6.33,-15.7 12.38,-31.45 18.14,-47.24 5.73,-15.7 11.25,-31.64 16.55,-47.79 0.84,-2.87 3.83,-4.57 6.75,-3.79l113.2 30.33c2.51,0.67 5.08,0.25 7.17,-0.96 2.1,-1.21 3.74,-3.22 4.41,-5.73l35.31 -131.76c0.65,-2.42 0.29,-4.89 -0.81,-6.93l-0.14 -0.23c-1.2,-2.09 -3.2,-3.73 -5.69,-4.41l-113.07 -30.3c-2.83,-0.76 -4.6,-3.61 -3.99,-6.5 3.47,-16.37 6.69,-32.93 9.65,-49.65 2.94,-16.63 5.61,-33.26 7.98,-49.86 0.26,-3.05 2.95,-5.31 6,-5.05l116.5 10.19c2.59,0.23 5.05,-0.63 6.9,-2.19 1.84,-1.54 3.11,-3.8 3.33,-6.36l11.89 -135.93c0.23,-2.59 -0.63,-5.05 -2.19,-6.91 -1.55,-1.85 -3.81,-3.11 -6.4,-3.34l-116.46 -10.19c-2.91,-0.26 -5.14,-2.75 -5.05,-5.7 0.55,-16.91 0.83,-33.83 0.82,-50.71 -0,-16.65 -0.3,-33.41 -0.86,-50.23l-0.02 -0.15c-0.26,-3.05 2,-5.74 5.05,-6l116.52 -10.19c2.58,-0.22 4.85,-1.49 6.4,-3.34 1.56,-1.85 2.41,-4.31 2.18,-6.91l-11.89 -135.89c-0.22,-2.58 -1.49,-4.85 -3.34,-6.4 -1.85,-1.56 -4.31,-2.41 -6.91,-2.19l-116.69 10.21c-2.91,0.24 -5.55,-1.82 -5.96,-4.75 -2.38,-16.57 -5.06,-33.25 -8.03,-50.01 -2.96,-16.67 -6.16,-33.17 -9.61,-49.46 -0.79,-2.97 0.96,-6.01 3.92,-6.8l113.25 -30.34c2.51,-0.67 4.52,-2.31 5.72,-4.39 1.21,-2.1 1.63,-4.67 0.95,-7.19l-35.31 -131.77c-0.64,-2.41 -2.18,-4.37 -4.15,-5.58l-0.26 -0.14c-2.09,-1.21 -4.66,-1.62 -7.17,-0.95l-113.25 30.35c-2.82,0.75 -5.78,-0.83 -6.7,-3.64 -5.31,-16.29 -10.85,-32.31 -16.58,-48.05 -5.72,-15.69 -11.71,-31.32 -17.93,-46.85l-0.02 -0.04c-1.29,-2.78 -0.09,-6.08 2.69,-7.37l106.25 -49.54c2.35,-1.08 4.05,-3.06 4.88,-5.33 0.79,-2.18 0.8,-4.65 -0.15,-6.91l-57.81 -123.95c-1.1,-2.36 -3.06,-4.06 -5.33,-4.88 -2.18,-0.8 -4.65,-0.8 -6.91,0.15l-106.35 49.61c-2.65,1.22 -5.83,0.18 -7.22,-2.43 -7.97,-14.95 -16.15,-29.69 -24.52,-44.2 -8.33,-14.44 -17.07,-28.99 -26.15,-43.6 -1.53,-2.48 -0.88,-5.76 1.54,-7.46l95.83 -67.1c2.11,-1.48 3.43,-3.71 3.85,-6.1 0.42,-2.39 -0.06,-4.93 -1.51,-7.04 -26.62,-36.6 -52.13,-74.75 -78.28,-111.79 -1.48,-2.11 -3.71,-3.43 -6.1,-3.85 -2.39,-0.42 -4.93,0.05 -7.04,1.5 -30.08,21.88 -67.48,44.19 -95.63,66.97 -2.41,1.89 -5.89,1.47 -7.78,-0.93 -10.69,-13.62 -21.36,-26.75 -32,-39.39 -10.58,-12.57 -21.61,-25.23 -33.04,-37.94 -2.18,-2.18 -2.18,-5.7 -0.01,-7.86l82.82 -82.82c1.83,-1.82 2.75,-4.24 2.75,-6.68 0,-2.42 -0.92,-4.84 -2.74,-6.67l-96.47 -96.47c-1.83,-1.85 -4.26,-2.78 -6.68,-2.78 -2.42,0.02 -4.85,0.94 -6.68,2.77l-82.92 82.92c-2.07,2.04 -5.41,2.16 -7.61,0.19 -12.33,-11.05 -25.06,-22.06 -38.14,-33.01 -13.18,-11.03 -26.37,-21.7 -39.54,-32.02 -2.3,-1.8 -2.82,-5.1 -1.13,-7.52l67.33 -96.15c1.48,-2.12 1.96,-4.68 1.54,-7.08 -0.42,-2.39 -1.74,-4.63 -3.85,-6.11l-111.75 -78.24c-2.11,-1.48 -4.67,-1.96 -7.08,-1.54 -2.39,0.42 -4.63,1.74 -6.11,3.85l-67.19 95.96c-1.61,2.59 -5.04,3.39 -7.63,1.78 -14.44,-8.99 -28.78,-17.59 -43,-25.8l-0.32 -0.17c-14.68,-8.48 -29.35,-16.64 -44.01,-24.47l-0.13 -0.06c-2.78,-1.29 -3.98,-4.59 -2.69,-7.37l49.63 -106.44c1.1,-2.36 1.14,-4.96 0.31,-7.23 -0.79,-2.17 -2.37,-4.06 -4.55,-5.18l-123.96 -57.8c-2.36,-1.1 -4.96,-1.14 -7.24,-0.31 -2.26,0.82 -4.23,2.52 -5.33,4.88l-49.57 106.31c-1.24,2.64 -4.35,3.89 -7.09,2.8 -15.71,-6.33 -31.48,-12.38 -47.28,-18.15 -15.69,-5.72 -31.61,-11.24 -47.75,-16.54 -2.87,-0.84 -4.57,-3.83 -3.79,-6.74l30.33 -113.21c0.67,-2.51 0.25,-5.07 -0.96,-7.17 -1.21,-2.1 -3.22,-3.74 -5.73,-4.41l-131.76 -35.31c-2.52,-0.68 -5.09,-0.26 -7.19,0.95 -2.09,1.2 -3.73,3.22 -4.4,5.73l-30.28 113.02c-0.76,2.83 -3.61,4.6 -6.5,3.99 -16.39,-3.47 -32.97,-6.69 -49.7,-9.66 -16.61,-2.94 -33.22,-5.61 -49.81,-7.98 -3.05,-0.26 -5.31,-2.95 -5.05,-6l10.19 -116.49c0.23,-2.59 -0.63,-5.04 -2.19,-6.9 -1.54,-1.84 -3.8,-3.11 -6.36,-3.33l-135.93 -11.89c-2.59,-0.23 -5.05,0.63 -6.91,2.19 -1.85,1.55 -3.11,3.81 -3.34,6.4l-10.19 116.43c-0.26,2.91 -2.75,5.14 -5.7,5.05 -16.89,-0.56 -33.78,-0.83 -50.64,-0.83 -16.67,0 -33.45,0.3 -50.31,0.86l-0.15 0.02c-3.05,0.26 -5.74,-2 -6,-5.05l-10.19 -116.48c-0.22,-2.58 -1.49,-4.85 -3.34,-6.4 -1.85,-1.56 -4.31,-2.41 -6.91,-2.19l-135.89 11.89c-2.58,0.22 -4.85,1.49 -6.4,3.34 -1.56,1.85 -2.41,4.31 -2.19,6.91l10.2 116.65c0.24,2.91 -1.82,5.55 -4.75,5.96 -16.57,2.37 -33.25,5.06 -50,8.02z"/>
                <path class="fil1" d="M3948.4 2420.91l-0.94 0.21c-33.73,7.63 -61.26,28.12 -78.56,55.13l-0.2 0.33c-17.37,27.32 -24.33,61.26 -16.76,95.34 7.55,33.94 28.1,61.65 55.24,79.03l0.33 0.2c27.32,17.37 61.26,24.33 95.34,16.75 33.94,-7.55 61.65,-28.1 79.03,-55.24l0.2 -0.33c17.29,-27.19 24.26,-60.94 16.85,-94.86l-0.21 -0.94c-7.63,-33.73 -28.12,-61.26 -55.13,-78.56l-0.33 -0.2c-27.19,-17.29 -60.94,-24.26 -94.86,-16.85zm-2.76 -10.71c37.04,-8.21 73.91,-0.65 103.56,18.2l0.39 0.27c29.5,18.9 51.83,49.02 60.04,85.93l0.02 0.1c8.21,37.04 0.66,73.91 -18.2,103.56l-0.27 0.39c-18.9,29.5 -49.03,51.83 -85.93,60.05 -37.07,8.24 -73.98,0.69 -103.66,-18.19l-0.39 -0.27c-29.5,-18.9 -51.83,-49.03 -60.05,-85.93 -8.24,-37.07 -0.69,-73.98 18.19,-103.67l0.27 -0.39c18.9,-29.5 49.02,-51.83 85.93,-60.04l0.1 -0.02z"/>
                <path class="fil1" d="M3891.58 3326.24l0.25 0.16c31.88,20.38 52.54,51.75 60.16,86.02 7.64,34.36 2.18,71.63 -18.19,103.66l-0.27 0.39c-20.39,31.81 -51.72,52.43 -85.93,60.05 -34.36,7.64 -71.64,2.18 -103.66,-18.19l-0.38 -0.26c-31.82,-20.38 -52.44,-51.72 -60.06,-85.94 -7.64,-34.36 -2.18,-71.63 18.19,-103.65l0.19 -0.29c20.38,-31.88 51.74,-52.54 86.01,-60.15 34.35,-7.64 71.63,-2.18 103.65,18.18l0.04 0.02zm49.61 88.57c-7,-31.5 -26.02,-60.35 -55.37,-79.09l-0.31 -0.19c-29.46,-18.7 -63.7,-23.71 -95.23,-16.69 -31.5,7 -60.34,26.01 -79.08,55.36l-0.19 0.31c-18.7,29.46 -23.72,63.7 -16.7,95.24 7,31.46 25.96,60.28 55.23,79.02l0.34 0.2c29.47,18.74 63.76,23.78 95.34,16.75 31.46,-7 60.28,-25.97 79.03,-55.24l0.19 -0.33c18.74,-29.48 23.78,-63.76 16.75,-95.34z"/>
                <path class="fil1" d="M3205.65 3935.81c8.24,37.05 0.68,73.96 -18.2,103.65 -18.87,29.7 -49.1,52.19 -86.19,60.44 -37.07,8.24 -73.98,0.69 -103.66,-18.19 -29.69,-18.88 -52.19,-49.12 -60.43,-86.2 -8.24,-37.06 -0.68,-73.96 18.2,-103.65 18.87,-29.7 49.1,-52.19 86.19,-60.44 37.07,-8.24 73.98,-0.69 103.67,18.19l0.39 0.27c29.5,18.9 51.83,49.03 60.04,85.93zm-27.54 97.72c17.37,-27.3 24.32,-61.25 16.74,-95.33 -7.55,-33.94 -28.1,-61.65 -55.24,-79.03l-0.33 -0.2c-27.32,-17.37 -61.26,-24.33 -95.34,-16.76 -34.07,7.58 -61.85,28.27 -79.22,55.58 -17.39,27.3 -24.33,61.25 -16.75,95.34 7.57,34.06 28.26,61.85 55.57,79.22 27.32,17.37 61.26,24.33 95.34,16.76 34.07,-7.58 61.85,-28.27 79.24,-55.58z"/>
                <path class="fil1" d="M2289.63 3881.85l-0.16 0.25c-20.38,31.88 -51.75,52.54 -86.02,60.16 -34.36,7.64 -71.63,2.18 -103.66,-18.19l-0.39 -0.27c-31.81,-20.39 -52.43,-51.72 -60.05,-85.93 -7.64,-34.36 -2.18,-71.64 18.19,-103.66l0.26 -0.38c20.38,-31.82 51.72,-52.44 85.94,-60.06 34.36,-7.64 71.63,-2.18 103.65,18.19l0.29 0.19c31.88,20.38 52.54,51.74 60.15,86.01 7.64,34.35 2.18,71.63 -18.18,103.65l-0.02 0.04zm-88.57 49.61c31.5,-7 60.35,-26.02 79.09,-55.37l0.19 -0.31c18.7,-29.46 23.71,-63.7 16.69,-95.23 -7,-31.5 -26.01,-60.34 -55.36,-79.08l-0.31 -0.19c-29.46,-18.7 -63.7,-23.72 -95.24,-16.7 -31.46,7 -60.28,25.96 -79.02,55.23l-0.2 0.34c-18.74,29.47 -23.78,63.76 -16.75,95.34 7,31.46 25.97,60.28 55.24,79.03l0.33 0.19c29.48,18.74 63.76,23.78 95.34,16.75z"/>
                <path class="fil1" d="M1680.06 3195.92c-37.05,8.24 -73.96,0.68 -103.65,-18.2 -29.7,-18.87 -52.19,-49.1 -60.44,-86.19 -8.24,-37.07 -0.69,-73.98 18.19,-103.66 18.88,-29.69 49.12,-52.19 86.2,-60.43 37.06,-8.24 73.96,-0.68 103.65,18.2 29.7,18.87 52.19,49.1 60.44,86.19 8.24,37.07 0.69,73.98 -18.19,103.67l-0.27 0.39c-18.9,29.5 -49.03,51.83 -85.93,60.04zm-97.72 -27.54c27.3,17.37 61.25,24.32 95.33,16.74 33.94,-7.55 61.65,-28.1 79.03,-55.24l0.2 -0.33c17.37,-27.32 24.33,-61.26 16.76,-95.34 -7.58,-34.07 -28.27,-61.85 -55.58,-79.22 -27.3,-17.39 -61.25,-24.33 -95.34,-16.75 -34.06,7.57 -61.85,28.26 -79.22,55.57 -17.37,27.32 -24.33,61.26 -16.76,95.34 7.58,34.07 28.27,61.85 55.58,79.24z"/>
                <path class="fil1" d="M1734.02 2279.89l-0.25 -0.16c-31.88,-20.38 -52.54,-51.75 -60.16,-86.02 -7.64,-34.36 -2.18,-71.63 18.19,-103.66l0.27 -0.39c20.39,-31.81 51.72,-52.43 85.93,-60.05 34.36,-7.64 71.64,-2.18 103.66,18.19l0.38 0.26c31.82,20.38 52.44,51.72 60.06,85.94 7.64,34.36 2.18,71.63 -18.19,103.65l-0.19 0.29c-20.38,31.88 -51.74,52.54 -86.01,60.15 -34.35,7.64 -71.63,2.18 -103.65,-18.18l-0.04 -0.02zm-49.61 -88.57c7,31.5 26.02,60.35 55.37,79.09l0.31 0.19c29.46,18.7 63.7,23.71 95.23,16.69 31.5,-7 60.34,-26.01 79.08,-55.36l0.19 -0.31c18.7,-29.46 23.72,-63.7 16.7,-95.24 -7,-31.46 -25.96,-60.28 -55.23,-79.02l-0.34 -0.2c-29.47,-18.74 -63.76,-23.78 -95.34,-16.75 -31.46,7 -60.28,25.97 -79.03,55.24l-0.19 0.33c-18.74,29.48 -23.78,63.76 -16.75,95.34z"/>
                <path class="fil1" d="M2419.94 1670.33c-8.24,-37.05 -0.68,-73.96 18.2,-103.65 18.87,-29.7 49.1,-52.19 86.19,-60.44 37.07,-8.24 73.98,-0.69 103.66,18.19 29.69,18.88 52.19,49.12 60.43,86.2 8.24,37.06 0.68,73.96 -18.2,103.65 -18.87,29.7 -49.1,52.19 -86.19,60.44 -37.07,8.24 -73.98,0.69 -103.67,-18.19l-0.39 -0.27c-29.5,-18.9 -51.83,-49.03 -60.04,-85.93zm27.54 -97.72c-17.37,27.3 -24.32,61.25 -16.74,95.33 7.55,33.94 28.1,61.65 55.24,79.03l0.33 0.2c27.32,17.37 61.26,24.33 95.34,16.76 34.07,-7.58 61.85,-28.27 79.22,-55.58 17.39,-27.3 24.33,-61.25 16.75,-95.34 -7.57,-34.06 -28.26,-61.85 -55.57,-79.22 -27.32,-17.37 -61.26,-24.33 -95.34,-16.76 -34.07,7.58 -61.85,28.27 -79.24,55.58z"/>
                <path class="fil1" d="M3335.97 1724.29l0.16 -0.25c20.38,-31.88 51.75,-52.54 86.02,-60.16 34.36,-7.64 71.63,-2.18 103.66,18.19l0.39 0.27c31.81,20.39 52.43,51.72 60.05,85.93 7.64,34.36 2.18,71.64 -18.19,103.66l-0.26 0.38c-20.38,31.82 -51.72,52.44 -85.94,60.06 -34.36,7.64 -71.63,2.18 -103.65,-18.19l-0.29 -0.19c-31.88,-20.38 -52.54,-51.74 -60.15,-86.01 -7.64,-34.35 -2.18,-71.63 18.18,-103.65l0.02 -0.04zm88.57 -49.61c-31.5,7 -60.35,26.02 -79.09,55.37l-0.19 0.31c-18.7,29.46 -23.71,63.7 -16.69,95.23 7,31.5 26.01,60.34 55.36,79.08l0.31 0.19c29.46,18.7 63.7,23.72 95.24,16.7 31.46,-7 60.28,-25.96 79.02,-55.23l0.2 -0.34c18.74,-29.47 23.78,-63.76 16.75,-95.34 -7,-31.46 -25.97,-60.28 -55.24,-79.03l-0.33 -0.19c-29.48,-18.74 -63.76,-23.78 -95.34,-16.75z"/>
                <path class="fil1" d="M2549.73 2861.46l-0.07 -0.39c-15.98,-72.48 -1.16,-144.59 35.76,-202.63 37,-58.18 96.22,-102.24 168.86,-118.41l0.52 -0.11c72.47,-15.98 144.58,-1.16 202.62,35.76 58.18,37 102.25,96.23 118.42,168.87l0.04 0.2c16.09,72.57 1.28,144.8 -35.69,202.93 -37,58.18 -96.23,102.25 -168.87,118.42l-0.18 0.04c-72.58,16.09 -144.83,1.28 -202.96,-35.69 -58.18,-37 -102.25,-96.22 -118.41,-168.87l-0.04 -0.11zm45.05 -197.08c-35.41,55.68 -49.65,124.85 -34.32,194.33l0.21 0.94c15.57,69.42 57.77,126.02 113.44,161.43 55.69,35.42 124.85,49.64 194.33,34.32l0.96 -0.21c69.41,-15.58 126.01,-57.78 161.42,-113.45 35.41,-55.68 49.64,-124.83 34.32,-194.31l-0.21 -0.97c-15.58,-69.41 -57.78,-126.01 -113.45,-161.42 -55.68,-35.41 -124.83,-49.64 -194.31,-34.32l-0.96 0.21c-69.42,15.57 -126.02,57.77 -161.43,113.44z"/>
            </g>
        </g>
    </g>
</svg>
